<?xml version="1.0" encoding="UTF-8" standalone="no"?>
<!DOCTYPE svg PUBLIC "-//W3C//DTD SVG 1.1//EN" "http://www.w3.org/Graphics/SVG/1.1/DTD/svg11.dtd">
<svg width="100%" height="100%" viewBox="0 0 2486 1168" version="1.1" xmlns="http://www.w3.org/2000/svg" xmlns:xlink="http://www.w3.org/1999/xlink" xml:space="preserve" xmlns:serif="http://www.serif.com/" style="fill-rule:evenodd;clip-rule:evenodd;stroke-linejoin:round;stroke-miterlimit:2;">
    <g id="Artboard2" transform="matrix(1,0,0,1,-114,-174)">
        <rect x="114" y="174" width="2486" height="1168" style="fill:none;"/>
        <g id="CPU" transform="matrix(4.093349,0,0,4.093349,-740.773216,-471.753285)">
            <path id="Main-Outline" serif:id="Main Outline" d="M461.151,396.5C461.135,397.35 461.194,402.853 460.141,405.352C459.041,407.963 457.477,407.443 457.523,411.5C457.582,416.74 457.37,417.132 459.244,418.782C465.901,424.645 462.528,432.925 455.551,433.887C446.416,435.147 442.215,427.112 446.455,420.47C447.689,418.538 448.891,418.967 448.811,415.484C448.679,409.779 448.85,409.674 447.959,408.228C443.711,401.327 445.669,398.507 445.123,388.507C445.032,386.845 445.234,386.372 443.58,386.103C443.47,386.085 439.652,386.095 439.429,386.133C436.262,386.666 438.63,391.576 437.385,402.478C436.697,405.402 436.732,405.458 434.898,407.826C434.519,408.316 433.615,409.484 434.078,415.536C434.291,418.316 435.343,418.2 436.498,419.502C436.661,419.685 436.805,419.886 436.974,420.064C441.641,424.971 439.244,432.769 432.567,433.885C423.926,435.33 419.852,428.57 421.827,422.599C423.107,418.726 425.452,419.583 425.318,415.51C425.128,409.754 425.358,409.589 423.761,407.322C420.298,402.406 422.374,390.796 421.639,387.454C421.4,386.365 421.13,386.158 416.479,386.14C413.838,386.129 414.088,387.098 413.946,390.51C413.648,397.671 414.859,402.974 411.958,406.797C409.79,409.656 410.204,409.908 410.415,413.504C410.591,416.522 410.127,416.908 412.75,419.204C418.638,424.358 415.952,432.966 408.556,433.915C397.436,435.342 395.638,424.169 400.426,419.431C402.475,417.405 401.688,416.994 401.624,411.501C401.587,408.309 400.621,408.192 399.588,406.453C397.015,402.122 399.153,387.826 397.544,386.446C396.937,385.925 392.058,386.043 391.402,386.324C389.082,387.315 391.535,399.642 389.708,404.585C388.548,407.724 386.818,407.221 387.028,411.507C387.264,416.34 386.699,416.786 389.173,418.874C393.714,422.704 393.449,428.277 390.466,431.467C386.403,435.811 374.591,435.376 374.687,425.497C374.731,420.939 376.919,419.521 377.208,419.226C379.024,417.377 378.536,417.085 378.365,414.507C378.063,409.97 378.689,409.758 377.249,407.665C376.594,406.712 376.607,406.732 376.048,405.728C373.461,401.093 375.258,388.343 374.178,386.789C373.439,385.727 367.911,386.119 367.511,386.513C365.646,388.346 368.438,400.257 365.725,405.619C364.682,407.678 363.435,407.389 363.618,411.492C363.861,416.939 363.598,417.278 365.818,419.142C366.366,419.603 370.147,422.777 369.176,427.433C367.231,436.763 351.854,436.111 351.17,426.523C350.84,421.889 352.751,420.212 353.474,419.477C355.763,417.151 354.97,416.746 354.893,413.503C354.857,411.992 354.987,412.004 354.924,410.492C354.851,408.72 353.368,407.267 352.789,406.318C350.036,401.8 351.197,389.547 350.661,387.431C350.415,386.464 349.97,386.108 345.469,386.188C344.091,386.213 343.77,386.144 343.501,387.5C342.575,392.172 344.893,401.869 342.095,406.241C341.047,407.88 340.089,407.626 340.243,411.511C340.458,416.928 340.294,417.217 342.237,418.828C348.047,423.646 345.287,429.028 344.336,430.384C339.997,436.564 328.423,434.973 327.75,426.484C327.287,420.631 331.306,419.077 331.676,417.557C331.973,416.335 331.737,416.342 331.595,414.489C331.295,410.575 332.177,410.231 330.176,407.764C325.306,401.761 328.425,387.849 326.568,386.394C326.023,385.966 321.433,386.179 321.411,386.183C319.091,386.62 320.167,389.795 319.954,400.53C319.866,404.909 318.581,405.662 317.02,408.278C316.725,408.773 316.377,409.357 316.906,415.477C317.138,418.167 318.661,418.581 319.123,418.938C324.481,423.069 323.458,432.677 315.559,433.889C306.412,435.293 302.607,427.696 305.366,421.438C306.496,418.876 308.632,419.52 308.16,415.54C307.86,413.012 308.306,413.004 307.988,410.483C307.544,406.972 304.02,407.609 303.541,396.498C303.198,388.522 304.392,386.682 302.58,386.262C302.332,386.205 302.33,386.232 299.491,386.238C298.666,386.24 297.02,385.862 296.699,387.569C295.549,393.68 298.639,401.435 294.756,406.674C292.788,409.329 293.125,409.569 293.481,413.502C293.771,416.705 293.339,417.069 295.805,419.137C301.069,423.551 299.102,428.733 297.678,430.629C295.21,433.912 292.314,434.298 288.442,433.913C280.967,433.169 278.878,423.841 283.453,419.453C285.45,417.537 284.993,417.217 284.77,414.476C284.608,412.478 284.774,412.487 284.642,410.493C284.485,408.112 282.532,407.342 281.488,404.504C278.699,396.922 280.932,387.516 279.537,386.441C279.265,386.231 276.736,386.208 276.492,386.206C274.098,386.184 273.467,386.087 273.17,388.461C271.95,398.23 275.112,401.03 271.428,406.452C269.501,409.288 269.923,409.514 270.237,413.542C270.467,416.489 270.018,416.835 272.258,418.766C272.971,419.381 278.514,424.161 274.285,430.362C271.074,435.07 265.781,434.067 264.427,433.89C260.958,433.436 258.208,430.58 257.76,427.463C256.775,420.618 261.194,419.274 261.546,417.512C261.646,417.008 261.351,414.763 261.32,414.525C260.964,411.822 261.068,409.87 260.28,408.652C258.472,405.86 255.381,405.704 256.621,388.504C256.798,386.054 255.937,386.129 253.489,386.146C250.786,386.165 249.985,385.832 249.548,388.509C248.091,397.449 252.014,401.096 247.334,407.386C246.948,407.905 246.099,409.045 246.877,415.46C247.137,417.611 247.567,417.44 249.23,418.818C255.367,423.902 252.696,432.878 245.554,433.895C238.384,434.917 234.3,430.498 234.339,425.5C234.376,420.717 237.527,419.252 238.086,417.398C238.298,416.694 237.768,411.107 237.638,410.472C236.898,406.861 233.207,406.599 232.942,398.462C232.614,388.354 233.562,387.38 232.489,386.513C232.153,386.241 229.605,386.251 227.671,383.392C226.64,381.868 224.987,379.425 225.475,360.499C225.505,359.313 226.144,351.383 226.449,349.493C226.742,347.676 229.338,329.54 229.35,329.477C230.243,324.862 231.12,316.37 232.25,309.461C234.051,298.453 233.699,296.355 234.541,292.508C235.491,288.164 235.976,281.158 236.505,277.501C237.849,268.221 237.941,268.247 238.047,267.44C240.358,249.994 240.639,250.059 240.824,248.542C241.932,239.478 241.992,239.5 243.359,230.478C243.651,228.555 247.258,200.25 247.463,199.491C249.792,190.882 256.496,191.598 256.507,191.597C259.17,191.432 258.959,190.31 259.595,186.517C260.55,180.836 261.73,180.128 268.5,180.12C277.575,180.11 274.625,189.132 276.899,191.121C277.563,191.703 281.359,192.395 282.076,190.369C282.102,190.297 282.704,186.861 282.757,186.556C283.709,181.122 284.428,180.465 290.495,180.282C299.415,180.011 297.42,184.339 299.91,190.299C300.689,192.162 303.696,191.941 304.558,191.622C306.493,190.906 305.463,184.324 307.777,181.729C308.249,181.199 309.512,179.783 316.517,180.225C322.958,180.631 321.527,187.529 323.285,190.641C323.908,191.745 327.116,191.674 327.523,191.598C331.268,190.897 326.826,180.946 334.488,180.306C345.364,179.396 344.855,183.543 345.867,188.379C346.315,190.519 346.534,191.367 348.474,191.653C351.581,192.11 352.089,191.633 352.571,188.518C353.399,183.156 352.437,179.757 362.514,180.199C363.006,180.221 366.558,180.377 367.785,183.369C369.474,187.487 367.598,191.423 372.499,191.547C376.268,191.643 375.774,190.217 376.159,186.461C376.815,180.066 379.12,180.121 385.509,180.145C393.921,180.177 390.903,189.582 393.676,191.227C394.577,191.762 397.268,191.59 397.511,191.54C401.366,190.744 396.507,180.604 405.482,180.234C411.826,179.972 414.09,180.431 415.11,185.592C415.802,189.097 415.5,191.203 418.505,191.419C422.523,191.708 422.467,190.514 422.707,187.52C423.219,181.123 424.38,180.199 431.506,180.25C441.272,180.32 436.438,189.403 439.584,191.299C440.098,191.608 444.037,191.476 444.473,191.39C447.754,190.74 444.272,183.64 448.714,180.864C450.378,179.825 456.427,180.224 456.547,180.242C463.183,181.251 460.394,189.82 462.747,191.119C463.558,191.567 467.849,191.392 468.359,191.205C469.966,190.616 469.833,186.4 469.916,185.54C470.492,179.575 475.098,180.197 478.509,180.233C487.808,180.331 483.281,189.603 485.576,191.397C486.405,192.046 490.984,191.673 491.502,191.504C493.924,190.71 491.662,184.279 494.583,181.589C496.701,179.638 503.862,180.052 505.28,180.906C510.073,183.794 506.446,190.754 509.501,191.496C510.122,191.646 514.248,191.46 514.479,191.414C516.463,191.025 516.144,187.836 516.223,186.478C516.594,180.096 519.79,180.051 525.511,180.201C532.15,180.375 531.125,185.382 531.595,189.482C531.9,192.14 535.131,191.529 536.5,191.503C539.468,191.447 539.18,190.443 539.345,187.484C539.689,181.289 540.573,180.256 547.503,180.187C555.188,180.109 553.993,184.301 554.802,189.41C555.174,191.758 557.756,191.244 559.494,191.23C562.137,191.209 562.281,190.596 562.603,187.514C563.216,181.629 563.678,180.089 571.503,180.206C580.516,180.341 576.67,189.729 578.618,191.356C578.919,191.607 579.424,192.03 583.513,191.626C585.852,191.395 585.698,190.43 586.005,186.46C586.467,180.464 588.365,180.237 594.503,180.221C601.756,180.201 601.087,185.381 601.33,188.531C601.451,190.101 601.63,190.364 602.222,190.851C603.116,191.588 607.932,191.767 608.549,190.528C610.196,187.216 606.476,180.198 616.498,180.196C622.798,180.195 623.821,180.896 624.631,187.477C624.979,190.302 624.661,191.239 627.509,191.341C630.482,191.447 631.295,191.13 631.591,190.56C632.339,189.12 632.026,189.041 632.24,187.446C633.184,180.41 634.666,180.127 641.512,180.184C648.317,180.242 647.709,185.764 648.205,189.563C648.402,191.075 649.044,191.685 650.487,191.711C653.332,191.762 654.588,191.647 655.097,189.411C656.045,185.251 655.066,180.459 662.495,180.276C667.954,180.142 670.608,180.819 671.134,185.581C671.576,189.583 671.158,191.571 674.499,191.565C677.522,191.56 678.172,191.507 678.617,188.526C679.515,182.498 679.312,179.51 689.519,180.257C696.256,180.751 693.836,189.978 695.553,191.434C696.295,192.064 699.28,191.77 699.549,191.71C704.313,190.663 698.871,180.554 708.499,180.247C714.628,180.052 716.633,180.732 717.549,184.488C718.633,188.932 717.287,191.856 721.507,191.722C723.13,191.67 724.071,191.377 724.586,189.531C726.295,183.409 726.173,180.788 731.478,180.307C739.546,179.576 740.321,182.23 740.865,184.389C742.065,189.157 741.218,191.747 744.46,191.933C747.774,192.123 747.844,190.661 748.099,189.444C749.379,183.319 749.962,180.512 754.477,180.203C762.667,179.641 763.635,182.018 764.202,184.561C765.42,190.024 764.104,191.721 767.488,191.8C772.828,191.923 776.477,193.573 777.26,202.518C778.009,211.067 778.286,211.019 779.585,219.487C780.101,222.853 779.917,222.868 780.631,227.478C781.415,232.532 781.662,232.472 782.225,237.533C782.305,238.253 782.938,243.946 783.353,246.52C785.718,261.168 785.22,261.23 786.318,267.53C787.537,274.527 788.475,284.999 791.049,301.574C792.609,311.623 795.78,337.235 797.636,347.474C799.064,355.351 798.901,372.475 798.645,376.508C797.943,387.561 792.005,384.847 791.335,387.447C790.901,389.131 793.162,399.919 788.283,407.374C787.054,409.252 787.063,409.292 786.338,414.475C785.765,418.582 786.794,418.441 788.06,419.888C792.174,424.593 790.851,435.085 779.45,433.843C772.932,433.133 769.023,424.521 775.128,419.124C777.18,417.311 777.326,417.235 777.505,414.5C777.787,410.196 778.13,409.258 776.711,407.35C771.262,400.028 777.603,394.435 774.496,387.502C773.61,385.523 768.669,386.529 768.558,386.601C766.724,387.789 769.683,393.981 766.743,403.584C765.594,407.337 763.689,407.32 763.215,411.466C762.498,417.751 762.812,417.933 764.415,419.581C769.12,424.418 766.952,433.064 759.549,433.864C748.699,435.037 746.763,424.852 750.963,419.894C752.54,418.031 753.891,418.631 754.099,414.474C754.317,410.129 754.626,409.579 753.289,407.649C750.332,403.38 750.741,401.172 751.478,394.497C751.988,389.884 750.71,386.924 750.379,386.65C749.639,386.039 745.97,386.153 745.43,386.322C743.969,386.779 744.447,389.122 744.548,392.499C744.583,393.653 744.837,402.14 741.74,406.655C739.086,410.524 739.826,410.837 739.453,415.497C739.205,418.593 740.142,418.558 741.207,419.754C745.297,424.348 744.16,434.657 733.465,433.908C725.21,433.329 722.938,423.838 728.73,418.764C730.268,417.417 730.624,417.455 730.799,414.525C731.122,409.137 731.01,409.035 729.776,407.298C724.795,400.287 729.454,396.715 727.76,388.436C727.293,386.156 725.963,386.147 723.496,386.188C721.85,386.215 721.463,386.03 720.984,387.616C720.94,387.763 721.25,392.343 720.839,397.535C720.133,406.445 716.581,406.866 716.296,411.49C715.928,417.475 715.946,417.737 717.073,418.9C717.478,419.317 720.231,422.158 720.1,425.502C719.626,437.585 701.787,436.25 702.094,425.485C702.28,418.963 706.965,419.774 707.291,415.487C707.834,408.365 706.917,408.438 706.325,407.627C703.228,403.387 703.991,398.651 704.519,394.502C705.119,389.798 703.928,386.98 703.415,386.617C702.758,386.153 698.568,385.848 697.804,386.821C696.675,388.259 699.14,400.438 694.263,407.329C693.399,408.549 692.75,408.456 692.508,415.5C692.404,418.523 693.708,418.867 694.392,419.604C698.871,424.431 696.895,432.796 689.557,433.874C679.152,435.403 675.008,424.149 682.491,418.49C683.883,417.437 683.689,416.759 684.006,412.469C684.377,407.452 682.05,408.023 680.995,403.378C680.095,399.417 681.99,388.546 680.247,386.749C679.509,385.988 674.482,385.776 673.755,386.72C672.541,388.299 675.329,400.485 670.575,407.555C669.089,409.766 669.131,409.832 668.995,412.507C668.728,417.753 669.403,418.166 670.597,419.409C675.948,424.981 672.784,432.835 666.547,433.795C657.478,435.192 654.198,427.912 655.546,423.511C657.162,418.234 660.22,419.639 660.421,415.496C660.723,409.294 660.54,409.204 659.401,407.575C657.02,404.169 656.801,403.105 657.302,396.483C657.361,395.692 657.966,387.683 656.425,386.605C655.722,386.113 651.172,386.046 650.514,386.523C648.585,387.922 651.236,401.345 647.282,407.362C645.979,409.345 645.853,409.42 645.818,415.501C645.803,418.181 646.125,418.167 647.899,420.179C651.48,424.241 650.079,432.773 642.553,433.879C635.245,434.954 631.537,429.55 631.912,425.517C632.292,421.42 633.537,420.279 635.07,419.031C637.35,417.175 637.036,416.571 637.127,411.473C637.169,409.125 636.738,408.997 635.221,406.664C631.77,401.359 635.163,388.938 633.168,386.806C632.488,386.078 627.439,385.836 626.629,386.636C625.971,387.285 626.163,389.667 625.877,399.508C625.662,406.907 623.068,407.16 622.572,409.517C622.351,410.567 622.334,416.263 622.352,416.51C622.574,419.506 624.71,419.168 626.029,422.665C626.922,425.031 626.645,428.909 624.426,431.433C620.194,436.242 607.584,434.77 608.726,424.527C609.351,418.922 613.271,419.294 613.797,416.566C614.123,414.871 613.921,410.948 613.896,410.46C613.77,408.023 611.268,407.424 610.402,402.517C609.731,398.714 611.363,388.145 609.412,386.611C608.71,386.06 604.507,385.913 603.421,386.383C602.967,386.58 602.391,386.83 602.522,392.5C602.548,393.606 602.773,403.316 601.049,406.245C599.786,408.392 598.981,408.169 599.012,411.507C599.021,412.475 598.906,416.573 599.195,417.613C599.669,419.322 603.606,421.519 603.079,426.449C601.89,437.574 583.671,436.084 585.195,424.458C585.966,418.575 590.19,419.965 590.296,415.498C590.305,415.098 590.399,411.116 590.363,410.504C590.197,407.708 587.687,407.548 586.912,402.44C586.486,399.63 587.629,388.364 586.23,386.755C585.434,385.839 580.134,385.962 579.533,386.534C577.75,388.229 581.144,401.247 577.001,407.116C575.485,409.264 575.649,409.39 575.585,412.502C575.483,417.395 575.396,417.61 577.334,419.654C581.246,423.782 579.579,428.534 578.328,430.382C575.296,434.857 569.926,433.966 569.455,433.933C563.082,433.495 561.344,427.916 561.84,424.541C562.708,418.64 566.683,419.942 566.79,415.51C566.928,409.779 566.511,409.146 566.21,408.688C565.651,407.839 565.522,407.971 564.932,407.168C561.391,402.343 564.533,388.226 562.462,386.547C561.983,386.159 558.815,386.129 558.496,386.127C556.217,386.105 555.693,386.227 555.573,388.505C555.151,396.538 556.733,402.265 553.117,407.226C552.221,408.456 551.92,408.491 552.072,415.516C552.154,419.279 553.723,418.791 555.347,421.583C556.805,424.09 556.183,428.389 555.017,430.202C551.949,434.976 546.409,433.973 545.444,433.859C541.168,433.35 536.808,428.996 539.157,422.369C540.538,418.475 543.129,419.622 543.207,415.494C543.318,409.599 543.276,409.474 541.678,407.368C537.674,402.092 541.098,388.918 539.255,386.727C538.56,385.901 533.336,385.814 532.602,386.603C531.626,387.652 532.452,395.306 531.852,401.527C531.29,407.353 528.592,406.577 528.46,410.498C528.189,418.571 529.225,418.445 530.363,419.637C530.815,420.11 533.479,422.899 532.563,427.512C530.818,436.3 516.805,436.19 515.254,427.543C514.179,421.554 518.475,418.686 519.059,418.156C519.684,416.311 519.665,416.289 519.616,411.499C519.579,407.761 517.953,407.926 516.858,405.348C514.88,400.689 516.815,388.12 515.426,386.577C514.67,385.736 509.505,385.694 508.771,386.72C507.983,387.819 508.561,396.83 508.108,401.469C507.57,406.973 505.991,406.876 505.301,408.385C504.381,410.396 504.834,416.731 505.155,417.653C505.683,419.17 511.118,422.061 508.972,428.657C506.84,435.208 497.442,435.535 493.686,431.335C490.256,427.501 492.125,422.358 492.518,421.509C493.897,418.531 496.278,419.444 496.069,414.514C495.895,410.39 496.406,410.156 494.143,406.721C490.284,400.863 493.809,388.416 491.563,386.408C491.187,386.071 487.796,386.135 487.468,386.141C485.305,386.181 484.871,386.366 484.79,388.517C484.501,396.227 485.913,403.055 482.313,407.355C480.996,408.927 481.168,409.674 481.243,414.505C481.301,418.268 482.103,418.231 483.45,419.552C489.454,425.44 484.517,434.096 477.493,434.031C468.219,433.945 467.509,426.121 468.757,422.571C470.128,418.668 472.621,419.631 472.463,415.501C472.244,409.769 472.271,409.662 470.73,407.358C466.374,400.844 470.589,387.393 467.627,386.264C466.708,385.914 462.748,386.035 462.366,386.148C460.933,386.571 461.054,388.148 461.151,396.5Z" style="fill:rgb(32,49,62);"/>
            <path id="Main" d="M779.828,245.437C780.678,251.859 780.586,253.051 781.297,256.545C781.489,257.489 782.617,263.029 782.869,268.479C783.188,275.369 784.404,275.901 785.116,285.543C785.682,293.208 786.651,293.062 788.9,312.452C789.226,314.929 789.304,315.29 789.357,315.534C790.418,320.449 790.112,320.484 790.822,325.462C790.948,326.347 792.363,336.274 792.415,336.521C794.143,344.7 793.599,344.774 794.187,349.537C794.233,349.905 796.827,357.58 790.5,357.968C787.14,358.174 530.346,358.041 508.495,358.088L291.497,358.047C244.573,358.085 244.576,357.952 240.497,358.036C231.922,358.212 232.061,357.204 230.747,356.311C230.569,355.918 230.452,356.006 230.268,355.601C230.228,355.513 230.027,355.071 229.901,354.449C229.586,352.886 231.352,339.779 231.411,339.483C231.664,338.217 232.922,331.921 233.692,323.507C234.46,315.114 235.179,315.224 235.749,308.522C235.845,307.398 236.532,299.338 237.671,294.549C238.4,291.489 239.514,292.472 242.478,291.418C250.287,288.643 252.806,285.896 255.892,280.746C256.397,279.903 259.255,275.134 257.311,268.54C255.12,261.11 249.42,258.811 249.356,258.772C246.014,256.763 243.674,257.191 243.398,255.523C243.293,254.888 245.276,239.274 245.436,238.487C246.791,231.825 247.654,221.339 248.368,217.473C250.862,203.968 249.928,196.76 254.41,195.292C255.814,194.832 255.855,195.056 387.512,195.037L511.504,194.963C581.575,195.128 744.51,194.91 754.508,195.029C767.797,195.186 770.057,194.199 772.023,196.77C773.062,198.13 773.929,204.504 774.016,205.543C774.416,210.293 774.228,210.313 775.734,217.444C775.783,217.771 776.348,221.473 776.358,221.526C777.676,228.725 776.956,228.825 779.828,245.437Z" style="fill:rgb(118,136,145);"/>
            <path id="Front-Side" serif:id="Front Side" d="M228.754,360.581C228.986,360.571 229.293,360.253 230.496,360.51C231.613,360.749 231.499,361.2 233.535,361.285C243.101,361.684 243.101,361.204 347.501,361.402C472.168,361.394 596.834,361.386 721.501,361.379C727.019,361.387 788.692,361.481 790.479,361.367C793.494,361.173 793.85,359.815 794.911,361.202C795.255,361.65 795.081,361.725 795.174,373.532C795.192,375.829 795.302,378.374 794.433,380.462C794.35,380.661 793.743,382.121 792.507,382.349C791.38,382.558 791.243,382.405 790.859,381.314C789.196,376.587 789.277,373.601 783.501,373.617C776.136,373.636 776.132,373.544 775.535,373.768C774.075,374.314 773.495,375.474 773.102,379.431C773.029,380.169 773.064,380.923 772.898,381.646C772.686,382.569 772.462,382.452 771.515,382.562C767.889,382.982 767.495,381.724 767.417,381.561C765.673,377.927 767.501,373.55 760.5,373.554C752.661,373.559 752.34,373.695 751.69,373.97C749.398,374.939 750.204,380.681 750.008,381.396C749.902,381.786 749.587,382.097 749.481,382.486C748.821,382.498 748.16,382.509 747.5,382.521C744.795,382.312 744.669,382.574 744.138,381.998C742.237,379.937 744.621,373.786 737.49,373.685C729.253,373.569 729.246,373.572 728.581,373.827C725.007,375.196 727.252,381.482 726.27,382.364C726.054,382.558 721.365,382.672 720.614,382.275C718.13,380.961 721.967,373.461 713.507,373.655C706.213,373.823 706.195,373.68 705.591,373.873C701.496,375.184 703.835,381.432 703.007,382.266C702.924,382.35 698.57,382.633 697.564,382.283C695.967,381.727 696.609,376.779 694.978,375.066C692.953,372.939 689.624,373.623 685.504,373.582C683.934,373.566 679.629,372.811 679.803,377.459C679.955,381.517 679.977,381.521 679.931,381.661C679.396,383.277 674.289,382.607 673.725,382.175C671.526,380.495 675.568,373.564 666.507,373.617C658.087,373.665 657.247,373.802 656.656,375.568C655.93,377.739 656.977,381.427 656.143,382.211C655.7,382.629 650.562,382.895 649.843,382.019C648.637,380.549 651.583,373.557 643.498,373.605C635.107,373.655 634.988,373.708 634.318,374.009C631.331,375.35 633.849,381.411 632.449,382.444C632.005,382.771 627.432,382.937 626.643,382.286C624.631,380.625 628.826,373.18 619.506,373.566C618.841,373.593 618.178,373.638 617.513,373.669C612.78,373.89 609.129,372.767 609.334,377.511C609.387,378.723 610.038,382.154 608.556,382.615C608.134,382.747 603.609,383.016 602.833,382.182C601.225,380.457 604.733,373.733 597.491,373.603C588.663,373.444 588.047,373.757 587.321,374.125C584.681,375.465 586.92,381.553 585.509,382.514C585.292,382.661 579.881,383.348 579.29,381.59C578.485,379.197 581.243,373.494 573.499,373.581C565.301,373.673 563.759,373.125 562.757,375.585C562.135,377.112 563.79,382.144 561.573,382.7C561.024,382.838 557.026,382.824 556.54,382.435C554.31,380.653 558.282,373.497 550.499,373.557C541.064,373.631 540.973,373.702 540.331,374.204C537.85,376.144 540.493,381.858 538.528,382.555C538.11,382.703 533.604,382.902 532.773,382.208C530.911,380.652 535.1,373.078 526.506,373.614C518.796,374.094 517.887,372.923 516.474,374.474C515.124,375.957 516.242,381.521 515.412,382.402C514.808,383.044 510.047,382.87 509.527,382.465C508.627,381.764 508.755,381.645 508.728,380.504C508.659,377.569 509.726,373.444 503.499,373.591C499.486,373.686 499.504,373.568 495.509,373.631C491.853,373.689 492.204,376.748 492.159,381.369C492.146,382.688 491.859,382.757 490.545,382.821C485.142,383.085 485.283,381.614 485.274,381.584C484.665,379.595 486.857,374.589 481.491,373.81C480.492,373.665 476.839,373.891 474.487,373.693C472.503,373.527 472.463,373.084 470.613,373.798C467.838,374.869 469.222,381.633 468.467,382.461C468.068,382.899 462.749,383.367 462.051,381.679C460.997,379.129 464.524,373.653 456.509,373.724C452.987,373.755 452.999,373.8 449.492,373.632C443.338,373.338 445.811,380.355 445.219,382.204C444.864,383.314 439.339,382.911 438.776,382.333C437.086,380.598 440.799,375.35 435.537,374.011C434.837,373.833 433.843,373.58 426.514,373.768C421.55,373.895 421.96,375.569 421.938,380.528C421.931,382.133 422.184,382.692 420.582,382.822C419.591,382.903 415.907,382.812 415.503,382.496C412.818,380.398 418.472,373.702 409.494,373.683C400.885,373.666 399.138,373.229 398.565,376.507C398.497,376.892 398.37,377.619 398.255,381.392C398.23,382.219 398.374,382.421 397.589,382.68C396.999,382.875 392.562,382.917 391.805,382.265C389.97,380.686 393.713,373.991 387.482,373.737C377.444,373.326 377.014,373.693 376.335,374.272C374.026,376.244 375.203,381.876 374.553,382.598C374.234,382.952 368.588,383.116 367.922,382.239C366.552,380.437 370.283,373.678 363.495,373.659C354.403,373.634 354.376,373.588 353.662,373.917C351.213,375.044 351.569,379.304 351.532,382.592C350.994,382.638 345.707,383.095 344.78,382.313C342.985,380.797 346.569,373.284 339.491,373.642C333.948,373.922 333.125,373.631 331.506,373.637C330.14,373.641 329.529,374.27 329.404,374.399C328.832,374.987 328.388,377.223 328.337,377.479C327.771,380.326 328.277,380.34 328.204,380.578C328.09,380.947 327.692,381.174 327.546,381.532C327.435,381.806 327.642,382.186 327.455,382.415C327.058,382.9 323.347,383.046 321.373,382.591C319.687,382.202 322.108,376.128 319.509,374.485C317.527,373.232 316.99,373.707 312.514,373.733C307.508,373.762 305.813,372.648 304.901,377.559C304.405,380.231 304.32,380.216 304.317,380.452C304.311,380.839 304.536,381.2 304.57,381.586C304.596,381.885 304.469,382.184 304.495,382.483C304.017,382.567 300.495,383.183 298.428,382.583C296.479,382.017 298.379,376.401 296.335,374.721C294.567,373.269 294.279,374.03 285.486,373.794C281.183,373.678 281.716,377.297 281.127,379.511C281.029,379.877 280.778,380.194 280.698,380.565C280.621,380.919 280.723,381.295 280.661,381.653C280.62,381.889 280.569,382.156 280.395,382.321C279.771,382.909 276.789,382.692 276.476,382.669C274.465,382.523 273.942,382.492 273.944,380.462C273.947,377.6 274.972,374.011 269.486,373.824C260.387,373.515 260.014,373.879 259.437,374.441C258.46,375.392 257.138,381.87 256.425,382.375C255.365,383.127 251.768,382.609 251.574,382.442C249.398,380.569 253.626,373.965 245.5,373.946C238.177,373.929 238.17,373.676 237.552,373.826C235.74,374.268 235.742,375.036 234.128,379.371C233.284,381.638 233.74,383.182 231.529,382.212C228.222,380.762 229.189,377.654 228.754,360.581Z" style="fill:rgb(64,102,120);"/>
            <path id="Top-Left-Full-circle" serif:id="Top Left Full circle" d="M263.485,316.953C264.211,317.034 273.983,317.043 277.59,327.466C278.682,330.621 277.454,333.045 276.432,335.465C274.279,340.563 266.104,346.951 257.504,345.474C255.126,345.066 247.841,342.383 246.371,336.538C244.445,328.877 247.97,325.621 249.486,323.489C249.746,323.123 250.689,321.796 253.691,319.771C255.133,318.799 259.283,317.231 261.457,317.059C261.619,317.046 261.608,317.051 263.485,316.953Z" style="fill:rgb(14,32,58);"/>
            <clipPath id="_clip1">
                <path id="Top-Left-Full-circle1" serif:id="Top Left Full circle" d="M263.485,316.953C264.211,317.034 273.983,317.043 277.59,327.466C278.682,330.621 277.454,333.045 276.432,335.465C274.279,340.563 266.104,346.951 257.504,345.474C255.126,345.066 247.841,342.383 246.371,336.538C244.445,328.877 247.97,325.621 249.486,323.489C249.746,323.123 250.689,321.796 253.691,319.771C255.133,318.799 259.283,317.231 261.457,317.059C261.619,317.046 261.608,317.051 263.485,316.953Z"/>
            </clipPath>
            <g clip-path="url(#_clip1)">
                <path d="M260.566,320.847C261.033,320.794 264.313,320.421 266.451,320.838C270.132,321.555 274.462,324.609 273.881,331.522C272.962,342.458 252.075,347.103 249.526,334.496C248.236,328.116 252.539,324.811 253.268,324.176C256.118,321.689 259.627,321.084 260.566,320.847Z" style="fill:rgb(62,100,121);"/>
            </g>
            <path id="Top-Right-Full-circle" serif:id="Top Right Full circle" d="M746.534,230.22C730.976,226.855 730.322,213.106 738.742,207.88C742.415,205.6 751.822,203.913 758.919,210.061C762.811,213.432 764.863,217.934 762.776,222.651C759.323,230.453 753.218,230.738 746.534,230.22Z" style="fill:rgb(13,29,53);"/>
            <clipPath id="_clip2">
                <path id="Top-Right-Full-circle1" serif:id="Top Right Full circle" d="M746.534,230.22C730.976,226.855 730.322,213.106 738.742,207.88C742.415,205.6 751.822,203.913 758.919,210.061C762.811,213.432 764.863,217.934 762.776,222.651C759.323,230.453 753.218,230.738 746.534,230.22Z"/>
            </clipPath>
            <g clip-path="url(#_clip2)">
                <path d="M759.919,218.475C759.916,219.488 760.468,220.748 758.66,223.583C756.634,226.763 747.628,230.09 739.38,222.621C737.957,221.332 737.803,221.418 737.1,219.619C733.669,210.838 746.122,206.832 753.45,210.609C759.164,213.554 759.336,215.804 759.919,218.475Z" style="fill:rgb(63,103,126);"/>
            </g>
            <g id="Top-Text" serif:id="Top Text">
                <path d="M366.925,219.413C365.555,213.024 365.356,213.078 365.289,212.514C365.085,210.788 367.285,210.898 367.504,210.909C370.061,211.036 370.565,211.607 371.009,213.598C372.427,219.961 372.682,225.393 372.731,226.427C373.499,227.288 373.465,227.325 373.559,227.356C373.618,227.375 374.098,227.53 374.33,227.352C374.688,227.077 375.181,222.658 375.501,221.5C377.765,213.315 377.455,213.253 377.653,212.543C378.396,209.877 382.357,211.254 382.551,211.441C383.203,212.067 383.961,215.454 384.518,217.495C385.594,221.441 385.315,223.834 386.123,225.815C386.694,227.215 386.506,227.339 386.634,227.343C387.788,227.378 387.497,226.87 387.91,225.795C388.285,224.819 388.128,224.796 388.205,223.46C388.34,221.102 389.307,216.432 389.525,215.506C390.343,212.021 389.994,210.664 393.546,211.056C395.974,211.324 395.694,212.334 394.845,215.6C393.312,221.496 393.553,221.535 392.058,227.436C391.308,230.226 391.31,230.207 391.248,230.449C390.184,234.62 390.815,236.32 386.526,236.028C383.39,235.815 383.49,230.648 382.098,225.635C380.869,221.206 381.188,221.138 381.047,220.765C380.664,219.75 379.839,220.69 379.771,220.767C379.63,220.928 379.184,223.132 379.142,223.339C378.885,224.609 378.454,225.364 376.541,233.513C375.647,235.556 375.709,236.072 373.479,236.06C370.813,236.046 370.242,235.392 369.979,234.368C369.619,232.962 370.092,232.887 366.925,219.413Z" style="fill:rgb(236,246,246);"/>
                <path d="M420.834,272.075C420.478,271.784 417.782,269.584 417.312,267.537C416.73,265.001 419.086,265.203 419.501,265.2C423.086,265.18 422.237,266.976 423.71,268.26C427.48,271.546 433.033,269.101 431.452,265.528C430.241,262.791 426.391,264.13 420.513,259.485C417.479,257.087 416.22,251.08 423.612,247.782C426.985,246.278 434.261,246.892 436.349,252.554C437.1,254.59 436.684,255.244 434.514,255.154C431.276,255.019 432.144,253.349 430.574,252.389C425.35,249.192 420.175,254.696 425.647,257.182C429.315,258.849 435.656,259.277 436.621,265.484C437.348,270.159 434.081,271.832 433.376,272.316C432.856,272.545 430.727,273.963 426.49,273.778C423.02,273.627 421.399,272.376 420.834,272.075Z" style="fill:rgb(236,247,247);"/>
                <path d="M424.929,234.005C424.677,233.701 420.764,230.378 421.532,221.502C421.989,216.211 423.882,214.567 424.704,213.709C429.558,208.649 438.671,209.961 441.428,215.54C442.25,217.205 443.49,219.516 440.505,219.596C437.38,219.68 437.542,218.105 436.538,216.476C435.168,214.25 427.657,212.583 427.169,220.478C426.549,230.519 429.09,232.115 432.504,232.22C436.27,232.335 436.692,229.397 437.621,228.632C438.502,227.907 440.856,227.809 441.35,227.969C443.06,228.521 442.02,235.341 434.468,236.161C427.767,236.889 425.896,234.7 424.929,234.005Z" style="fill:rgb(243,250,250);"/>
                <path d="M503.044,217.264C502.792,218.044 501.74,221.315 502.518,227.497C502.584,228.019 502.702,232.653 508.467,232.191C512.876,231.838 511.09,227.816 515.496,227.676C519.463,227.55 516.263,233.202 514.502,234.502C510.942,237.131 503.596,237.494 499.676,233.334C499.66,233.317 496.546,231.373 496.892,221.516C496.921,220.699 497.115,215.153 501.392,212.337C508.571,207.613 514.954,212.095 516.587,215.452C517.348,217.017 518.603,219.474 515.5,219.425C511.301,219.359 513.084,215.116 508.488,214.605C507.288,214.471 505.828,214.803 505.63,214.88C503.496,215.708 503.133,217.119 503.044,217.264Z" style="fill:rgb(240,249,248);"/>
                <path d="M584.24,252.588C584.289,252.838 585.571,255.839 583.037,259.212C581.448,261.327 583.95,261.555 584.787,264.411C587.024,272.042 578.133,275.361 571.701,273.033C568.465,271.862 564.858,266.465 569.491,266.244C570.903,266.176 571.085,266.001 571.944,267.125C572.394,267.714 572.277,267.763 572.696,268.359C574.851,271.429 581.282,269.518 579.455,264.517C578.068,260.719 572.629,263.751 572.653,260.495C572.669,258.299 573.271,258.335 575.466,258.119C575.924,258.073 577.512,257.817 577.623,257.785C580.503,256.95 580.187,251.83 576.493,251.669C573,251.516 572.652,253.911 572.226,254.263C571.801,254.614 567.38,255.612 567.339,253.516C567.287,250.861 572.879,245.951 578.47,247.615C583.179,249.016 583.753,251.647 584.24,252.588Z" style="fill:rgb(235,245,246);"/>
                <path d="M492.283,223.588C492.321,223.696 494.357,227.575 492.364,232.447C490.38,237.293 484.313,236.511 482.549,236.218C480.144,235.82 479.749,235.315 477.985,234.012C477.78,233.754 475.801,231.268 475.866,230.478C476,228.834 478.301,229.065 478.54,229.089C482.143,229.451 480.881,232.606 484.501,232.532C489.873,232.424 489.595,220.907 482.453,223.384C482.126,223.497 480.65,224.462 478.531,224.211C476.723,223.998 476.582,222.756 477.086,217.463C477.133,216.971 477.574,212.336 478.434,211.433C478.997,210.842 480.158,210.97 489.5,210.901C493.696,210.87 491.561,214.355 491.461,214.451C490.525,215.35 483.374,214.464 482.401,215.387C482.247,215.533 480.2,219.889 483.504,219.558C484.017,219.507 486.273,218.586 489.557,220.417C491.181,221.322 492.272,223.57 492.283,223.588Z" style="fill:rgb(237,247,246);"/>
                <path d="M527.554,255.146C527.333,254.822 526.825,254.776 526.603,254.452C526.36,254.096 526.055,251.18 528.417,250.324C531.41,249.239 531.449,249.418 534.412,248.276C537.792,246.973 537.648,248.887 537.704,252.5C537.728,254.1 537.996,271.628 537.501,272.501C537.006,273.374 532.564,274.279 532.339,271.519C532.273,270.704 532.458,256.08 532.346,255.538C532.312,255.372 532.098,254.33 530.499,254.488C530.258,254.512 530.285,254.618 527.554,255.146Z" style="fill:rgb(241,248,248);"/>
                <path d="M507.416,255.159C507.134,255.049 506.803,255.427 506.521,255.317C505.196,254.802 505.08,251.986 506.76,250.917C507.949,250.16 515.384,247.806 515.501,247.826C516.685,248.025 516.657,248.29 516.691,249.486C516.739,251.166 516.676,251.155 516.615,270.499C516.608,272.628 516.617,273.19 514.489,273.317C511.881,273.471 511.353,273.118 511.353,270.5C511.353,255.444 512.178,254.66 510.576,254.292C510.144,254.192 509.555,254.298 509.468,254.314C509.293,254.345 509.317,254.376 507.416,255.159Z" style="fill:rgb(230,242,243);"/>
                <path d="M545.372,218.19C544.888,218.201 544.973,218.471 544.499,218.481C544.432,218.483 544.076,218.491 543.712,218.227C542.96,217.682 543.267,215.632 543.924,214.852C544.76,213.858 552.405,211.347 552.478,211.335C554.894,210.942 554.345,213.369 554.351,215.498C554.4,234.705 554.824,234.813 554.362,235.412C553.56,236.452 551.252,236.085 550.635,236.062C549.66,235.495 549.637,235.53 549.583,235.45C549.329,235.073 549.31,233.66 549.308,233.502C549.103,218.18 549.595,217.699 548.571,217.382C547.384,217.015 545.643,218.072 545.372,218.19Z" style="fill:rgb(243,249,249);"/>
                <path d="M628.806,223.523C628.801,221.761 628.969,218.243 628.348,217.643C627.798,217.112 626.634,217.412 626.489,217.449C624.372,217.995 624.192,218.62 623.331,217.721C622.84,217.209 622.783,217.209 622.777,216.489C622.759,214.268 625.21,213.561 625.477,213.453C626.027,213.231 631.318,211.092 632.539,211.216C632.677,211.23 633.553,211.319 633.778,212.43C633.903,213.049 633.806,230.902 633.797,232.508C633.796,232.74 633.785,234.781 633.328,235.366C632.644,236.244 629.082,236.785 628.786,234.449C628.676,233.582 628.789,233.582 628.806,223.523Z" style="fill:rgb(237,245,244);"/>
                <path id="_-" serif:id="-" d="M613.494,223.139C614.173,223.174 614.854,223.1 615.533,223.135C618.152,223.271 617.996,225.947 616.819,226.924C616.369,227.298 616.081,227.537 609.515,227.295C607.953,227.238 606.882,226.473 607.603,224.535C608.243,222.816 610.726,223.159 613.494,223.139Z" style="fill:rgb(235,244,243);"/>
                <g id="_0" serif:id="0" transform="matrix(0.244299,0,0,0.244299,208.820044,157.756733)">
                    <path d="M1188.138,380.715C1192.766,389.876 1193.08,389.818 1194.41,400.023C1198.177,428.94 1193.753,445.089 1192.72,448.859C1184.292,479.618 1150.632,478.385 1137.734,468.48C1120.909,455.557 1120.586,435.091 1122,408.388C1124.637,358.604 1164.104,365.412 1172.801,368.961C1181.885,372.668 1181.252,373.676 1188.138,380.715ZM1142.57,428.708C1143.16,407.422 1141.991,382.438 1161.006,384.935C1180.723,387.525 1175.323,438.716 1170.897,449.917C1165.92,462.512 1151.333,461.217 1146.015,448.682C1142.001,439.223 1143.565,438.887 1142.57,428.708Z" style="fill:rgb(233,245,245);"/>
                </g>
                <g id="_01" serif:id="0" transform="matrix(0.244299,0,0,0.244299,187.566052,157.756733)">
                    <path d="M1188.138,380.715C1192.766,389.876 1193.08,389.818 1194.41,400.023C1198.177,428.94 1193.753,445.089 1192.72,448.859C1184.292,479.618 1150.632,478.385 1137.734,468.48C1120.909,455.557 1120.586,435.091 1122,408.388C1124.637,358.604 1164.104,365.412 1172.801,368.961C1181.885,372.668 1181.252,373.676 1188.138,380.715ZM1142.57,428.708C1143.16,407.422 1141.991,382.438 1161.006,384.935C1180.723,387.525 1175.323,438.716 1170.897,449.917C1165.92,462.512 1151.333,461.217 1146.015,448.682C1142.001,439.223 1143.565,438.887 1142.57,428.708Z" style="fill:rgb(233,245,245);"/>
                </g>
                <g id="P" transform="matrix(0.244299,0,0,0.244299,208.820044,157.756733)">
                    <path d="M1539.126,224.265C1540.412,223.089 1540.322,220.84 1541.607,219.664C1544.725,216.812 1579.593,217.977 1582.896,218.087C1586.635,218.212 1617.32,219.237 1618.265,248.664C1619.022,272.208 1602.646,277.976 1598.504,280.128C1595.55,281.27 1591.623,283.81 1582.8,284.047C1565.785,284.505 1565.22,283.338 1562.716,285.854C1560.011,288.573 1560.891,301.819 1560.908,310.097C1560.932,321.171 1557.402,320.849 1546.31,320.655C1543.105,319.602 1540.89,321.248 1539.338,313.933C1539.069,312.663 1539.456,311.311 1539.187,310.042C1539.023,303.182 1538.503,281.398 1539.126,224.265ZM1560.925,252.696C1560.927,251.377 1560.956,237.658 1562.181,236.247C1565.922,231.939 1581.98,233.381 1587.266,235.661C1597.61,240.123 1605.234,267.01 1578.626,267.441C1570.207,267.577 1562.313,268.009 1560.957,261.159C1560.957,261.159 1560.927,253.373 1560.925,252.696Z" style="fill:rgb(241,248,249);"/>
                </g>
                <g id="D" transform="matrix(0.244299,0,0,0.244299,208.820044,157.756733)">
                    <path d="M777.512,265.037C777.594,246.545 777.319,246.642 777.153,228.125C777.05,216.597 781.277,217.825 792.829,217.69C819.203,217.383 831.351,218.692 845.351,232.939C863.899,251.813 859.962,291.523 846.239,306.157C835.057,318.081 824.289,320.078 813.127,320.482C785.523,321.483 782.258,320.114 779.797,319.082C776.858,317.849 776.634,316.678 777.512,265.037ZM821.298,301.539C814.613,303.478 814.77,304.407 809.221,304.102C802.749,303.745 801.134,304.371 799.794,298.021C799.455,296.416 799.651,296.442 799.64,285.527C799.594,238.67 798.642,238.185 800.636,236.053C801.818,234.789 804.076,234.954 805.258,233.691C807.727,233.773 832.032,230.899 834.715,260.848C837.368,290.452 826.912,298.099 824.295,300.013C823.39,300.674 822.203,300.877 821.298,301.539Z" style="fill:rgb(238,247,247);"/>
                </g>
                <g id="_6" serif:id="6" transform="matrix(0.244299,0,0,0.244299,208.820044,157.756733)">
                    <path d="M1014.725,309.345C1000.408,288.019 1007.256,253.162 1012.374,243.875C1014.471,240.071 1020.7,223.716 1047.042,217.781C1055.058,215.974 1064.18,213.397 1062.883,224.076C1061.753,233.384 1052.496,233.303 1051.056,233.712C1038.113,237.385 1031.023,248.939 1031.957,252.135C1033.125,256.131 1034.488,254.916 1038.453,253.678C1039.086,253.481 1043.687,252.045 1046.549,251.883C1089.326,249.469 1092.902,326.43 1038.462,321.466C1021.736,319.941 1015.674,310.414 1014.725,309.345ZM1053.638,273.911C1056.508,281.61 1057.35,281.425 1057.353,289.636C1057.36,310.152 1033.887,312.41 1028.508,294.174C1023.527,277.284 1030.95,272.678 1032.741,271.315C1033.401,270.812 1037.338,267.814 1042.482,267.759C1049.613,267.682 1052.942,273.148 1053.638,273.911Z" style="fill:rgb(235,246,246);"/>
                </g>
                <g id="_61" serif:id="6" transform="matrix(0.244299,0,0,0.244299,317.288698,157.756733)">
                    <path d="M1014.725,309.345C1000.408,288.019 1007.256,253.162 1012.374,243.875C1014.471,240.071 1020.7,223.716 1047.042,217.781C1055.058,215.974 1064.18,213.397 1062.883,224.076C1061.753,233.384 1052.496,233.303 1051.056,233.712C1038.113,237.385 1031.023,248.939 1031.957,252.135C1033.125,256.131 1034.488,254.916 1038.453,253.678C1039.086,253.481 1043.687,252.045 1046.549,251.883C1089.326,249.469 1092.902,326.43 1038.462,321.466C1021.736,319.941 1015.674,310.414 1014.725,309.345ZM1053.638,273.911C1056.508,281.61 1057.35,281.425 1057.353,289.636C1057.36,310.152 1033.887,312.41 1028.508,294.174C1023.527,277.284 1030.95,272.678 1032.741,271.315C1033.401,270.812 1037.338,267.814 1042.482,267.759C1049.613,267.682 1052.942,273.148 1053.638,273.911Z" style="fill:rgb(235,246,246);"/>
                </g>
                <g id="_8" serif:id="8" transform="matrix(0.244299,0,0,0.244299,208.820044,157.756733)">
                    <path d="M1344.833,252.56C1339.099,265.812 1337.329,265.732 1338.521,268.712C1339.884,272.121 1349.62,279.683 1348.316,297.716C1346.075,328.7 1301.235,322.615 1292.491,317.588C1290.053,316.187 1274.325,307.146 1278.738,285.234C1280.026,278.84 1280.347,278.879 1284.828,274.062C1285.645,273.185 1292.113,268.84 1286.985,261.788C1265.511,232.259 1299.687,208.335 1329.132,219.719C1338.4,223.303 1347.919,233.634 1345.707,248.691C1345.515,249.999 1345.025,251.252 1344.833,252.56ZM1325.496,244.552C1325.154,245.884 1325.243,247.302 1324.902,248.634C1321.074,263.558 1300.805,259.073 1300.906,244.528C1301.002,230.761 1321.521,230.203 1324.787,240.505C1325.201,241.81 1325.082,243.247 1325.496,244.552ZM1298.609,289.541C1299.025,288.131 1298.862,286.59 1299.279,285.179C1301.869,276.406 1313.351,272.866 1320.459,277.934C1340.057,291.906 1317.831,315.673 1303.652,302.764C1297.903,297.53 1298.838,290.888 1298.609,289.541Z" style="fill:rgb(239,246,246);"/>
                </g>
                <g id="_62" serif:id="6" transform="matrix(0.244299,0,0,0.244299,342.940069,194.890146)">
                    <path d="M1014.725,309.345C1000.408,288.019 1007.256,253.162 1012.374,243.875C1014.471,240.071 1020.7,223.716 1047.042,217.781C1055.058,215.974 1064.18,213.397 1062.883,224.076C1061.753,233.384 1052.496,233.303 1051.056,233.712C1038.113,237.385 1031.023,248.939 1031.957,252.135C1033.125,256.131 1034.488,254.916 1038.453,253.678C1039.086,253.481 1043.687,252.045 1046.549,251.883C1089.326,249.469 1092.902,326.43 1038.462,321.466C1021.736,319.941 1015.674,310.414 1014.725,309.345ZM1053.638,273.911C1056.508,281.61 1057.35,281.425 1057.353,289.636C1057.36,310.152 1033.887,312.41 1028.508,294.174C1023.527,277.284 1030.95,272.678 1032.741,271.315C1033.401,270.812 1037.338,267.814 1042.482,267.759C1049.613,267.682 1052.942,273.148 1053.638,273.911Z" style="fill:rgb(235,246,246);"/>
                </g>
                <g id="_4" serif:id="4" transform="matrix(0.244299,0,0,0.244299,208.820044,157.756733)">
                    <path d="M1824.403,320.778C1822.828,320.103 1820.958,320.343 1819.383,319.669C1816.378,318.381 1815.957,314.687 1815.898,314.17C1815.59,311.46 1815.986,308.706 1815.759,305.988C1815.493,302.815 1815.543,302.697 1813.179,300.578C1809.378,297.172 1790.419,298.878 1783.495,299.162C1763.989,299.963 1773.677,281.573 1774.191,280.796C1788.176,259.62 1811.383,222.596 1813.04,220.894C1817.481,216.333 1832.353,215.687 1835.133,220.861C1837.43,225.136 1836.6,266.846 1836.745,273.196C1837.047,286.331 1849.276,280.326 1849.283,289.546C1849.29,299.433 1837.629,297.511 1836.437,305.923C1836.057,308.605 1836.36,311.35 1836.036,314.039C1835.108,321.745 1832.07,319.416 1824.403,320.778ZM1799.585,269.677C1807.843,255.29 1808.443,255.076 1809.301,253.919C1809.905,253.104 1811.928,250.129 1814.715,250.16C1817.155,250.186 1816.738,260.182 1816.71,260.836C1816.331,269.905 1816.218,275.287 1815.693,277.164C1813.517,284.933 1798.715,283.034 1796.874,280.473C1794.874,277.692 1795.799,274.692 1799.585,269.677Z" style="fill:rgb(239,243,243);"/>
                </g>
                <g id="_41" serif:id="4" transform="matrix(0.244299,0,0,0.244299,112.812796,194.645847)">
                    <path d="M1824.403,320.778C1822.828,320.103 1820.958,320.343 1819.383,319.669C1816.378,318.381 1815.957,314.687 1815.898,314.17C1815.59,311.46 1815.986,308.706 1815.759,305.988C1815.493,302.815 1815.543,302.697 1813.179,300.578C1809.378,297.172 1790.419,298.878 1783.495,299.162C1763.989,299.963 1773.677,281.573 1774.191,280.796C1788.176,259.62 1811.383,222.596 1813.04,220.894C1817.481,216.333 1832.353,215.687 1835.133,220.861C1837.43,225.136 1836.6,266.846 1836.745,273.196C1837.047,286.331 1849.276,280.326 1849.283,289.546C1849.29,299.433 1837.629,297.511 1836.437,305.923C1836.057,308.605 1836.36,311.35 1836.036,314.039C1835.108,321.745 1832.07,319.416 1824.403,320.778ZM1799.585,269.677C1807.843,255.29 1808.443,255.076 1809.301,253.919C1809.905,253.104 1811.928,250.129 1814.715,250.16C1817.155,250.186 1816.738,260.182 1816.71,260.836C1816.331,269.905 1816.218,275.287 1815.693,277.164C1813.517,284.933 1798.715,283.034 1796.874,280.473C1794.874,277.692 1795.799,274.692 1799.585,269.677Z" style="fill:rgb(239,243,243);"/>
                </g>
                <g id="_42" serif:id="4" transform="matrix(0.244299,0,0,0.244299,7.031429,194.890146)">
                    <path d="M1824.403,320.778C1822.828,320.103 1820.958,320.343 1819.383,319.669C1816.378,318.381 1815.957,314.687 1815.898,314.17C1815.59,311.46 1815.986,308.706 1815.759,305.988C1815.493,302.815 1815.543,302.697 1813.179,300.578C1809.378,297.172 1790.419,298.878 1783.495,299.162C1763.989,299.963 1773.677,281.573 1774.191,280.796C1788.176,259.62 1811.383,222.596 1813.04,220.894C1817.481,216.333 1832.353,215.687 1835.133,220.861C1837.43,225.136 1836.6,266.846 1836.745,273.196C1837.047,286.331 1849.276,280.326 1849.283,289.546C1849.29,299.433 1837.629,297.511 1836.437,305.923C1836.057,308.605 1836.36,311.35 1836.036,314.039C1835.108,321.745 1832.07,319.416 1824.403,320.778ZM1799.585,269.677C1807.843,255.29 1808.443,255.076 1809.301,253.919C1809.905,253.104 1811.928,250.129 1814.715,250.16C1817.155,250.186 1816.738,260.182 1816.71,260.836C1816.331,269.905 1816.218,275.287 1815.693,277.164C1813.517,284.933 1798.715,283.034 1796.874,280.473C1794.874,277.692 1795.799,274.692 1799.585,269.677Z" style="fill:rgb(239,243,243);"/>
                </g>
            </g>
            <path id="Left-half-circle" serif:id="Left half circle" d="M253.646,277.567C251.172,281.976 251.324,282.181 247.299,285.228C244.899,287.046 239.303,289.524 238.617,288.453C238.031,287.539 241.003,273.408 241.621,264.505C241.808,261.814 241.776,261.829 241.852,261.618C241.91,261.456 242.121,261.392 242.205,261.242C242.338,261.004 242.266,260.629 242.491,260.475C243.423,259.839 248.758,262.201 250.368,263.665C251.414,264.616 253.359,267.476 253.951,269.32C255.398,273.821 253.89,276.783 253.646,277.567Z" style="fill:rgb(63,102,126);"/>
            <g id="Bottom-Text" serif:id="Bottom Text">
                <path id="W" d="M470.571,309.755C470.3,310.039 470.029,310.323 469.758,310.607C469.154,314.583 468.89,314.512 468.018,318.449C467.737,319.718 467.535,320.865 465.526,320.95C463.314,321.044 463.159,320.633 462.683,318.471C460.663,309.29 460.408,309.358 460.234,308.56C458.926,302.568 458.484,302.532 458.911,301.724C459.419,300.766 462.077,301.108 462.507,301.492C463,301.931 463.277,302.177 464.512,309.496C464.551,309.726 464.529,309.711 464.742,312.399C464.953,312.558 465.164,312.716 465.375,312.875C465.661,312.771 465.93,313.335 466.217,313.232C466.692,313.059 468.03,302.657 468.78,301.695C469.283,301.049 472.078,300.258 473.047,302.627C473.23,303.076 473.092,303.107 474.365,308.543C474.767,310.256 474.773,311.28 474.806,311.417C474.848,311.589 475.012,311.712 475.061,311.882C475.313,312.75 475.133,312.776 475.394,313.636C475.684,314.588 476.28,314.538 476.602,313.594C476.88,312.779 477.035,308.595 477.299,307.451C478.541,302.068 478.419,302.032 478.717,301.658C479.489,300.689 482.139,300.901 482.514,301.489C482.911,302.112 482.518,302.169 480.746,310.557C478.678,320.344 478.474,320.456 477.684,320.78C477.369,320.91 474.556,322.065 473.634,319.458C472.521,316.308 471.856,312.024 471.754,311.367C471.732,311.225 471.493,309.685 471.375,309.606C471.149,309.454 470.797,309.908 470.571,309.755Z" style="fill:rgb(238,247,247);"/>
                <g id="Copyright" transform="matrix(0.244299,0,0,0.244299,208.820044,157.756733)">
                    <path d="M904.89,617.353C905.639,614.91 907.535,601.204 922.814,590.924C937.867,580.796 948.812,580.789 965.053,587.692C966.561,588.333 973.168,591.142 980.632,600.993C989.458,612.641 996.325,646.92 969.582,663.277C968.859,663.719 946.497,679.534 922.985,663.26C898.426,646.261 904.679,619.397 904.89,617.353ZM978.7,629.475C978.419,631.807 978.619,639.22 974.186,646.45C957.028,674.433 912.142,663.173 913.156,625.305C914.273,583.534 978.038,580.553 978.772,625.19C978.795,626.618 978.677,628.047 978.7,629.475ZM963.2,623.309C960.583,621.969 958.885,622.806 955.52,617.694C952.822,613.595 953.626,612.22 948.793,611.595C932.526,609.49 937.256,638.513 940.157,641.606C947.226,649.146 952.628,643.048 953.328,642.258C956.874,638.256 956.241,637.869 956.567,637.548C956.991,637.129 960.601,633.567 963.497,634.798C963.538,634.816 967.814,638.642 963.812,645.19C955.766,658.356 926.573,657.969 924.796,629.258C922.813,597.219 958.361,596.474 964.978,612.846C968.096,620.561 963.558,622.581 963.2,623.309Z" style="fill:rgb(229,236,237);"/>
                </g>
                <path d="M513.441,300.85C514.139,301.104 516.505,301.333 518.258,304.612C519.954,307.782 516.721,308.79 514.911,306.263C514.638,305.881 512.325,302.652 509.169,305.061C508.17,305.824 508.328,305.969 508.052,306.266C507.705,306.967 507.033,307.273 507.085,311.503C507.093,312.142 507.171,318.484 511.495,318.161C513.926,317.98 514.829,315.812 514.879,315.745C515.942,314.327 518.134,314.891 518.552,315.466C519.194,316.35 517.082,320.845 512.475,321.295C505.952,321.932 504.021,316.808 503.781,316.403C503.306,314.888 503.176,314.929 502.987,312.431C502.635,307.806 503.851,305.79 504.15,305.295C506.986,300.596 509.713,300.51 513.441,300.85Z" style="fill:rgb(236,247,247);"/>
                <path id="_7" serif:id="7" d="M585.312,308.43C586.419,306.013 586.704,305.287 586.252,304.744C585.561,303.915 579.946,304.517 578.589,304.19C577.423,303.909 576.375,301.617 578.589,300.937C578.837,300.86 587.697,300.911 588.489,300.916C590.782,300.929 593.081,300.314 591.577,303.538C587.222,312.87 587.315,312.907 586.923,313.711C584.745,318.174 584.536,320.205 583.631,320.666C583.403,320.783 581.384,321.812 580.426,320.54C579.584,319.422 581.603,317.829 585.312,308.43Z" style="fill:rgb(240,248,249);"/>
                <g id="D1" serif:id="D" transform="matrix(0.244299,0,0,0.244299,208.820044,157.756733)">
                    <path d="M1130.739,637.559C1130.658,634.286 1130.153,613.734 1130.904,596.628C1131.214,589.577 1129.947,587.396 1136.879,586.15C1139.496,585.679 1142.195,586.006 1144.854,585.978C1146.738,585.958 1176.58,583.042 1189.347,605.046C1192.808,611.01 1193.921,627.484 1192.998,637.354C1192.803,639.44 1191.711,651.123 1180.191,660.197C1162.374,674.232 1134.637,668.178 1132.816,666.002C1129.965,662.595 1130.745,639.035 1130.739,637.559ZM1160.905,601.643C1167.228,604.911 1168.165,603.804 1172.33,609.622C1184.292,626.331 1174.867,653.948 1157.167,655.063C1147.644,655.662 1147.75,647.03 1147.665,645.735C1147.427,642.115 1147.068,607.6 1148.135,604.417C1149.767,599.546 1156.341,600.526 1157.111,600.64C1158.405,600.833 1159.611,601.45 1160.905,601.643Z" style="fill:rgb(239,247,247);"/>
                </g>
                <path id="_1" serif:id="1" d="M537.948,303.445C538.037,304.724 538.362,309.389 538.085,319.469C537.799,319.754 537.881,320.291 537.595,320.576C537.223,320.945 535,321.418 534.651,319.471C534.515,318.715 534.593,310.235 534.62,308.503C534.688,304.237 531.949,307.057 530.46,306.627C529.846,306.45 528.646,304.326 531.432,303.33C533.387,302.631 533.427,302.821 535.38,302.114C536.358,301.761 536.373,301.357 537.281,301.847C537.659,302.051 537.763,302.3 537.785,302.353C538.004,302.877 537.732,302.928 537.948,303.445Z" style="fill:rgb(238,247,247);"/>
                <g id="_9" serif:id="9" transform="matrix(0.244299,0,0,0.244299,208.820044,157.756733)">
                    <path d="M1429.254,642.311C1424.99,651.876 1423.721,655.847 1411.892,663.658C1400.618,671.102 1391.529,668.512 1389.726,666.67C1385.521,662.377 1389.512,658.093 1390.009,657.56C1392.102,655.313 1414.966,649.651 1413.908,641.697C1413.876,641.455 1410.838,639.106 1410.489,639.078C1408.79,638.938 1396.268,646.341 1383.576,635.58C1370.35,624.367 1374.066,585.01 1402.663,585.527C1403.499,585.543 1425.148,585.836 1430.37,609.074C1433.513,623.062 1429.829,639.713 1429.254,642.311ZM1391.533,609.086C1392.378,607.52 1392.716,605.714 1393.562,604.148C1396.957,597.862 1406.962,598.285 1411.042,604.662C1421.808,621.49 1406.841,634.36 1397.47,626.962C1388.766,620.09 1391.396,612.809 1391.533,609.086Z" style="fill:rgb(239,247,246);"/>
                </g>
                <g id="_81" serif:id="8" transform="matrix(0.244299,0,0,0.244299,208.820044,157.756733)">
                    <path d="M1443.437,645.69C1445.017,639.377 1443.865,638.798 1448.34,633.961C1453.553,628.326 1454.278,628.907 1454.233,628.252C1454.148,626.994 1452.758,626.201 1452.126,625.111C1450.619,622.514 1450.55,622.616 1448.544,620.437C1448.191,620.054 1445.696,616.404 1445.598,616.15C1440.814,603.764 1450.464,593.888 1451.832,592.488C1467.903,576.039 1495.844,586.255 1496.351,608.863C1496.637,621.599 1487.599,621.614 1493.285,633.093C1510.424,667.696 1465.58,679.174 1448.967,661.095C1443.214,654.833 1444.527,654.087 1443.437,645.69ZM1481.326,641.37C1481.312,642.836 1482.039,644.247 1482.025,645.713C1481.904,658.508 1464.668,659.036 1460.894,649.37C1457.655,641.073 1466.342,634.559 1468.345,633.732C1477.816,629.82 1480.302,639.496 1481.326,641.37ZM1472.61,618.725C1471.066,618.236 1469.323,618.699 1467.779,618.21C1462.48,616.533 1460.07,606.716 1464.993,601.568C1471.312,594.961 1484.156,602.476 1480.346,612.894C1478.652,617.528 1477.349,616.281 1472.61,618.725Z" style="fill:rgb(235,244,243);"/>
                </g>
            </g>
            <g id="Bottom-Pins" serif:id="Bottom Pins">
                <path d="M756.701,422.427C756.034,415.385 758.425,408.341 756.348,405.626C755.399,404.386 752.855,403.52 754.914,394.639C755.187,393.461 756.29,393.242 756.454,393.209C756.696,393.161 763.416,393.224 763.532,393.243C764.062,393.33 765.144,393.355 765,396.456C764.716,402.562 763.678,403.765 763.261,404.249C762.364,405.288 760.609,405.734 760.097,410.444C759.831,412.901 759.257,422.237 759.187,422.429C758.231,425.05 757.049,423.283 756.945,423.127C756.807,422.921 756.838,422.632 756.701,422.427Z" style="fill:rgb(193,198,199);"/>
                <path d="M290.482,393.057C292.227,393.318 292.834,392.81 293.207,394.535C293.291,394.924 293.184,394.93 293.468,399.502C293.779,404.496 291.834,404.733 290.936,405.889C289.149,408.19 291.497,417.235 291.094,421.471C290.935,423.145 291.15,423.84 289.478,423.662C287.649,423.467 288.145,419.738 287.916,416.454C287.356,408.41 287.221,408.012 286.985,407.316C286.068,404.612 283.388,405.451 282.907,395.458C282.851,394.311 282.566,394.156 283.413,393.38C283.802,393.023 285.838,393.076 290.482,393.057Z" style="fill:rgb(197,201,201);"/>
                <path d="M313.476,393.035C315.47,393.106 315.464,393.064 315.629,393.112C315.699,393.132 316.153,393.263 316.404,393.575C316.752,394.007 316.908,394.2 316.74,400.5C316.622,404.901 315.269,404.423 314.094,406.247C312.908,408.089 314.721,419.535 314.152,422.395C313.854,423.894 312.62,423.648 312.456,423.615C310.86,423.297 311.246,417.81 311.103,415.523C310.633,407.99 311.139,407.749 309.824,406.226C306.675,402.579 307.087,402.276 306.504,397.5C306.184,394.885 306.036,393.443 307.561,392.991C307.69,392.953 313.003,393.028 313.476,393.035Z" style="fill:rgb(193,197,197);"/>
                <path d="M360.485,393.04C362.486,393.119 363.808,392.652 363.834,395.498C363.908,403.628 363.557,403.688 362.669,404.67C360.49,407.083 360.867,407.369 360.876,411.509C360.889,417.562 361.203,417.535 361.219,420.531C361.244,425.536 358.92,423.54 358.721,423.317C357.869,422.362 358.08,413.101 357.861,409.469C357.651,405.979 356.274,406.536 354.731,403.389C353.609,401.099 353.87,394.097 353.976,393.873C354.562,392.634 359.223,393.019 360.485,393.04Z" style="fill:rgb(197,199,201);"/>
                <path d="M779.902,421.505C779.726,413.21 782.022,408.156 779.581,405.42C778.811,404.557 776.584,403.256 778.41,395.477C778.921,393.304 779.283,393.215 781.509,393.202C785.687,393.177 787.595,393.077 788.117,393.797C788.86,394.822 787.705,402.175 787.136,403.312C785.992,405.596 783.697,404.881 783.166,413.488C782.95,416.99 782.947,416.968 782.846,420.491C782.84,420.724 782.779,422.847 782.31,423.353C782.026,423.659 780.604,424.062 780.143,422.684C780.016,422.303 780.029,421.885 779.902,421.505Z" style="fill:rgb(187,191,193);"/>
                <path d="M330.16,394.407C330.386,394.174 330.268,393.725 330.494,393.493C330.866,393.11 332.33,393.081 332.493,393.077C338.801,392.952 339.093,393.096 339.603,393.347C340.351,393.715 340.229,395.62 340.207,400.499C340.189,404.763 339.089,404.408 337.964,405.911C335.916,408.648 339.358,423.477 336.584,423.782C334.19,424.045 334.862,419.735 334.578,415.495C334.09,408.22 334.901,407.881 333.114,405.853C330.568,402.964 330.195,401.363 330.16,394.407Z" style="fill:rgb(195,197,200);"/>
                <path d="M688.498,393.233C690.48,393.216 693.646,392.973 694.203,393.807C694.503,394.257 694.63,394.447 693.9,400.563C693.32,405.423 690.232,404.85 689.834,408.534C689.46,411.993 689.311,421.33 689.298,421.483C689.281,421.705 689.099,423.985 687.465,423.583C686.13,423.255 686.629,417.842 686.661,416.499C686.847,408.792 687.179,407.304 686.062,405.874C684.604,404.006 683.61,404.14 683.909,397.517C684.047,394.465 684.243,393.554 685.451,393.268C685.451,393.268 688.254,393.236 688.498,393.233Z" style="fill:rgb(193,196,199);"/>
                <path d="M736.051,419.501C736.017,419.942 736.178,423.545 734.5,423.483C731.182,423.36 735.229,410.017 733.438,406.536C732.661,405.025 730.573,404.698 730.837,399.545C731.094,394.542 731.247,393.301 733.482,393.21C734.049,393.187 739.486,392.966 740.564,393.295C741.711,393.645 741.541,395.311 741.522,395.502C740.601,404.556 739.485,404.258 737.945,405.89C736.968,406.926 736.409,409.164 736.051,419.501Z" style="fill:rgb(189,195,196);"/>
                <path d="M497.456,393.187C503.057,393.156 503.052,393.092 503.538,393.119C504.862,393.192 505.111,393.227 505.296,394.533C505.479,395.834 505.166,400.934 505.131,401.489C504.933,404.719 503.355,404.811 502.247,406.337C501.029,408.014 502.38,420.345 501.757,422.602C501.151,424.793 499.767,423.482 499.636,423.359C498.953,422.712 499.136,418.93 499.102,416.517C499.01,410.046 499.03,410.051 499.011,409.489C498.884,405.781 496.875,405.399 495.848,403.333C495.567,402.769 495.019,401.667 495.189,395.486C495.261,392.861 496.796,393.378 497.456,393.187Z" style="fill:rgb(200,201,202);"/>
                <path d="M424.878,395.481C425.042,394.908 424.854,394.897 425.021,394.318C425.043,394.243 425.213,393.65 425.463,393.445C425.985,393.018 429.715,393.128 430.495,393.126C433.517,393.118 434.871,392.486 434.728,395.511C434.586,398.51 434.491,398.489 434.387,401.504C434.272,404.86 432.261,405.1 431.514,406.509C430.174,409.035 431.643,419.526 431.194,422.421C430.893,424.366 429.156,423.632 428.866,423.221C428.713,423.004 428.757,422.686 428.604,422.468C428.229,419.003 428.356,419.007 428.182,415.524C427.826,408.386 428.687,407.978 426.584,405.43C424.644,403.081 424.944,401.544 424.878,395.481Z" style="fill:rgb(196,199,200);"/>
                <path d="M472.448,393.41C472.955,393.339 472.922,393.137 474.475,393.124C480.698,393.073 480.989,393.123 481.395,393.607C481.973,394.296 481.6,402.493 481.198,403.377C480.091,405.809 478.364,405.286 478.148,408.47C478.008,410.528 478.328,418.627 478.362,419.51C478.376,419.848 478.518,423.468 477.61,423.668C476.14,423.992 475.853,422.599 475.818,422.428C475.787,422.278 475.808,422.287 475.688,420.521C475.663,419.145 475.262,407.778 475.199,407.607C474.337,405.25 471.825,405.225 471.729,399.497C471.724,399.178 471.69,397.15 471.708,395.516C471.728,393.778 472.148,393.909 472.448,393.41Z" style="fill:rgb(205,207,209);"/>
                <path d="M409.625,404.624C408.131,406.256 407.966,406.527 407.852,406.714C406.435,409.049 408.294,420.574 407.749,422.597C407.173,424.741 405.689,423.566 405.54,423.448C404.991,423.013 404.868,419.85 404.856,419.533C404.779,416.702 404.787,416.72 404.773,416.476C404.299,408.133 404.962,407.836 403.255,405.713C402.131,404.314 401.058,404.455 401.188,395.49C401.228,392.754 402.395,393.061 408.498,393.141C410.154,393.162 410.553,392.975 411.006,394.573C411.014,394.6 410.834,400.941 410.819,401.495C410.755,403.733 409.864,404.281 409.625,404.624Z" style="fill:rgb(201,203,204);"/>
                <path d="M377.544,394.509C377.691,394.29 377.633,393.973 377.78,393.754C378.23,393.081 380.265,393.064 380.489,393.062C384.644,393.027 386.601,392.933 387.086,393.783C387.392,394.32 387.414,394.357 387.207,401.503C387.106,405.013 384.758,405.077 384.212,407.425C384.001,408.332 384.057,415.409 384.437,418.509C384.49,418.939 385.261,425.229 382.464,423.556C381.528,422.996 381.627,417.696 381.527,416.496C380.84,408.249 381.852,407.813 379.666,405.351C377.281,402.665 377.544,401.386 377.544,394.509Z" style="fill:rgb(195,198,202);"/>
                <path d="M709.959,419.569C710.021,418.686 710.518,411.603 710.408,408.505C710.307,405.671 708.792,405.793 707.855,403.374C707.138,401.522 707.401,394.311 708.508,393.512C708.947,393.195 711.262,393.188 711.503,393.187C716.147,393.171 716.148,393.116 716.546,393.18C717.894,393.398 718.01,394.408 718.029,394.57C718.037,394.643 717.796,397.175 717.738,397.542C717.735,397.564 716.732,402.426 716.69,402.566C715.698,405.878 713.778,405.125 713.315,408.48C712.427,414.915 713.686,423.446 711.514,423.552C709.966,423.627 709.998,421.431 709.959,419.569Z" style="fill:rgb(196,197,199);"/>
                <path d="M529.039,396.474C528.741,401.472 529.259,403.16 527.148,405.082C526.454,405.714 525.234,406.22 525.175,408.49C525.169,408.709 525.261,421.914 525.111,422.427C524.308,425.172 522.984,423.328 522.874,423.174C522.021,421.987 522.875,421.372 522.608,415.496C522.299,408.687 523.313,408.283 521.182,405.768C519.009,403.203 518.902,403.063 518.923,398.489C518.927,397.679 518.884,394.71 518.928,394.574C519.445,393.001 519.802,393.181 521.473,393.153C528.005,393.043 528.086,393.112 528.514,393.479C528.826,393.748 528.915,394.252 528.928,394.326C529.115,395.39 528.85,395.395 529.039,396.474Z" style="fill:rgb(200,201,202);"/>
                <path d="M453.497,393.146C456.323,393.165 456.308,393.123 456.548,393.167C457.684,393.375 457.731,393.48 458.051,394.575C458.128,394.84 457.874,400.95 457.851,401.504C457.72,404.67 456.513,404.471 455.198,406.287C453.681,408.381 455.292,420.222 454.732,422.573C454.348,424.183 452.803,423.646 452.561,423.432C452.207,423.12 452.086,420.698 452.074,420.457C451.508,409.158 452.364,408.001 450.84,406.232C447.999,402.933 448.079,401.437 448.156,395.506C448.193,392.555 450.091,393.129 453.497,393.146Z" style="fill:rgb(195,198,199);"/>
                <path d="M619.49,393.204C621.399,393.216 621.39,393.186 621.552,393.217C623.456,393.573 622.829,395.387 622.634,401.506C622.531,404.729 621.631,404.389 620.202,406.298C619.854,406.762 619.458,407.291 619.418,413.501C619.413,414.239 619.368,421.327 618.907,422.721C618.473,424.035 616.851,423.953 616.479,422.508C616.179,421.343 616.825,418.865 616.796,409.507C616.784,405.646 614.143,405.831 613.394,402.523C613.317,402.184 612.82,394.77 613.772,393.75C614.43,393.047 616.718,393.2 619.49,393.204Z" style="fill:rgb(197,198,200);"/>
                <path d="M639.954,416.496C639.981,410.621 640.295,407.917 639.401,406.573C638.19,404.755 636.835,404.697 636.875,400.524C636.936,394.214 637.233,393.858 637.559,393.577C637.981,393.213 638.22,393.007 644.512,393.147C644.664,393.15 645.92,393.178 646.321,393.706C646.697,394.202 646.765,394.292 646.135,401.485C645.792,405.391 644.276,404.846 643.46,406.476C642.433,408.529 643.001,418.083 642.222,422.433C642.192,422.601 641.842,424.552 640.437,423.603C639.483,422.958 639.842,419.803 639.954,416.496Z" style="fill:rgb(199,200,201);"/>
                <path d="M569.508,393.159C573.876,393.167 575.463,392.9 575.88,394.383C576.035,394.93 575.898,394.942 575.827,401.494C575.786,405.317 572.967,405.018 572.532,407.506C572.364,408.472 572.42,421.586 572.15,422.421C571.759,423.626 571.684,423.938 570.453,423.655C569.027,423.328 569.823,420.615 569.741,414.492C569.66,408.508 570.193,407.906 568.261,405.715C566.036,403.191 566.372,402.295 566.369,397.503C566.369,397.201 566.366,394.264 566.782,393.756C567.578,392.781 567.806,393.277 569.508,393.159Z" style="fill:rgb(199,200,198);"/>
                <path d="M596.489,393.144C598.19,393.269 598.498,392.743 599.135,393.795C599.406,394.243 599.277,396.267 599.263,396.481C598.85,402.947 599.474,403.303 597.414,405.411C595.286,407.588 596.275,408.06 595.831,420.491C595.668,425.062 593.787,423.616 593.554,423.432C592.713,422.768 593.291,417.234 593.237,409.502C593.219,406.885 592.437,406.818 591.488,405.51C590.276,403.838 590.136,403.209 590.069,401.517C589.789,394.354 590.127,394.039 590.592,393.608C591.223,393.023 593.751,393.149 596.489,393.144Z" style="fill:rgb(198,199,199);"/>
                <path d="M261.018,403.898C260.791,403.523 259.894,403.151 259.485,398.501C259.194,395.202 259.146,393.521 260.4,393.188C260.657,393.119 262.347,393.128 262.516,393.129C268.322,393.16 269.645,392.469 269.792,395.488C269.966,399.061 270.222,399.05 269.88,402.604C269.457,403.509 269.67,403.637 268.613,404.641C267.682,405.525 267.676,405.507 267.607,405.594C265.576,408.166 268.495,419.283 267.665,422.564C267.272,424.114 265.71,423.679 265.497,423.503C265.179,423.24 265.25,422.664 264.932,422.401C264.768,420.647 264.762,420.659 264.754,420.507C264.472,414.958 264.3,414.991 263.88,409.463C263.687,406.927 263.012,406.532 261.018,403.898Z" style="fill:rgb(194,198,198);"/>
                <path d="M499.495,389.902C496.509,389.811 495.299,390.491 495.191,387.514C494.859,378.36 495.052,378.184 495.636,377.652C496.59,376.785 503.932,377.059 504.605,377.302C506.034,377.819 505.344,378.384 505.406,385.505C505.412,386.17 505.438,386.835 505.436,387.5C505.429,390.566 503.737,389.943 499.495,389.902Z" style="fill:rgb(199,199,201);"/>
                <g transform="matrix(1,0,0,1,0,-0.488598)">
                    <path d="M270.335,382.5C270.335,382.749 270.599,388.308 269.445,389.426C268.981,389.875 267.651,389.901 267.49,389.904C267.172,389.911 267.179,389.896 263.51,389.939C260.653,389.972 259.414,390.368 259.677,387.516C260.518,378.416 260.899,378.049 261.487,377.483C262.1,376.893 269.617,376.686 270.393,377.587C270.819,378.082 270.713,378.157 270.335,382.5Z" style="fill:rgb(197,203,202);"/>
                </g>
                <path d="M294.07,381.431C293.642,387.041 294.243,389.73 291.523,389.937C291.042,389.973 291.043,389.825 285.484,390.02C282.794,390.114 283.074,388.454 283.548,385.509C284.032,382.507 284.08,382.528 284.256,379.475C284.418,376.66 286.011,377.025 291.49,377.07C293.795,377.089 294.499,377.172 294.288,379.465C294.274,379.622 294.272,379.61 294.07,381.431Z" style="fill:rgb(195,199,201);"/>
                <path d="M435.044,381.486C434.794,388.933 434.847,389.012 434.442,389.442C433.687,390.244 430.957,389.943 427.495,390.017C427.327,390.021 425.951,390.05 425.439,389.57C425.133,389.284 424.955,388.857 424.879,388.444C424.867,388.376 424.885,378.837 424.96,378.617C425.522,376.977 427.249,377.138 428.5,377.132C430.826,377.119 434.062,377.022 434.54,377.451C434.912,377.784 435.104,378.453 435.131,378.549C435.196,378.775 435.125,378.764 435.044,381.486Z" style="fill:rgb(196,198,200);"/>
                <path d="M452.505,389.902C449.529,389.797 448.276,390.499 448.202,387.51C447.998,379.154 448.019,379.087 448.236,378.391C448.718,376.841 451.498,377.128 455.504,377.106C457.914,377.093 458.708,377.114 458.482,379.499C457.692,387.875 458.889,389.492 456.572,389.911C456.251,389.969 456.261,389.938 452.505,389.902Z" style="fill:rgb(200,201,203);"/>
                <path d="M474.479,377.115C475.825,377.108 477.171,377.101 478.516,377.093C481.039,377.079 481.855,376.978 481.853,379.498C481.847,388.676 481.866,388.763 481.345,389.357C480.681,390.114 477.954,389.89 475.503,389.876C475.257,389.875 472.793,389.861 472.447,389.573C471.553,388.827 471.755,388.688 471.726,387.502C471.508,378.507 471.529,378.44 471.971,377.802C472.387,377.201 472.537,377.435 474.479,377.115Z" style="fill:rgb(193,195,197);"/>
                <path d="M340.889,380.564C340.292,388.664 340.93,389.762 338.535,389.937C337.017,390.048 332.957,389.951 332.472,389.939C329.931,389.878 330.073,389.008 330.354,386.479C330.427,385.822 330.516,385.167 330.595,384.511C331.257,379.001 330.381,377.354 333.479,377.133C334.042,377.092 339.664,376.691 340.532,377.466C341.119,377.99 341.064,379.272 341.057,379.435C341.041,379.815 340.905,380.184 340.889,380.564Z" style="fill:rgb(194,199,200);"/>
                <path d="M387.774,382.503C387.635,388.735 387.991,389.717 385.516,389.967C385.117,390.007 385.134,389.98 380.5,389.937C378.218,389.916 377.681,389.775 377.665,387.505C377.66,386.764 377.605,379.03 378.07,378.255C378.907,376.862 380.391,377.15 383.495,377.131C383.817,377.129 387.051,377.109 387.503,377.497C388.169,378.067 388.027,379.768 387.774,382.503Z" style="fill:rgb(198,200,203);"/>
                <path d="M354.236,380.494C354.471,378.462 353.965,377.231 357.491,377.124C363.517,376.942 364.401,377.248 364.557,378.491C364.648,379.211 364.348,379.193 363.926,387.534C363.77,390.601 362.556,389.943 359.49,389.942C358.742,389.942 355.087,390.088 354.482,389.522C353.763,388.849 354.025,386.272 354.236,380.494Z" style="fill:rgb(194,197,200);"/>
                <path d="M411.211,383.493C411.17,385.45 411.313,388.73 410.514,389.517C410.097,389.927 408.665,389.946 408.5,389.949C402.732,390.029 401.606,390.104 401.276,388.555C401.163,388.023 401.216,388.018 401.279,381.505C401.282,381.207 401.31,378.343 401.81,377.808C402.861,376.682 410.383,377.188 410.605,377.259C411.981,377.7 411.424,378.423 411.211,383.493Z" style="fill:rgb(198,201,202);"/>
                <path d="M661.422,389.656C661.135,389.292 660.546,389.512 660.367,387.513C659.949,382.849 660.036,382.86 659.999,382.456C659.659,378.747 658.801,377.132 662.518,377.087C667.003,377.033 668.548,376.903 669.19,377.747C670.197,379.07 670.456,388.763 670.185,389.26C669.621,390.297 666.841,389.954 665.495,389.936C663.446,389.908 663.458,389.903 661.422,389.656Z" style="fill:rgb(193,194,196);"/>
                <path d="M307.487,380.499C307.779,378.105 307.475,377.152 310.495,377.072C317.413,376.891 317.626,377.468 317.756,378.462C317.845,379.139 317.159,380.686 317.097,383.504C317.095,383.577 317.225,388.628 316.434,389.428C315.959,389.907 314.648,389.925 314.487,389.927C307.92,390.018 307.857,389.961 307.439,389.581C307.132,389.301 306.935,388.883 306.872,388.472C306.767,387.797 307.424,381.135 307.487,380.499Z" style="fill:rgb(201,205,205);"/>
                <path d="M566.042,384.522C565.814,380.565 565.8,380.575 565.772,379.505C565.741,378.347 565.614,378.224 566.482,377.475C566.909,377.107 567.115,376.93 573.517,377.084C576.101,377.147 576.044,377.932 575.927,380.51C575.759,384.192 576.437,388.692 575.548,389.552C575.141,389.946 574.905,390.174 568.48,389.887C565.704,389.762 566.165,388.052 566.042,384.522Z" style="fill:rgb(193,195,196);"/>
                <path d="M638.434,389.85C638.066,389.488 637.892,389.827 637.527,389.468C637.458,389.4 637.122,389.069 636.959,388.399C636.806,387.775 636.861,387.117 636.799,386.477C636.586,384.267 635.515,378.571 636.582,377.588C637.383,376.851 644.94,376.797 645.582,377.411C646.168,377.972 646.364,378.16 646.604,387.496C646.685,390.642 644.975,390.023 638.434,389.85Z" style="fill:rgb(187,188,191);"/>
                <path d="M613.079,384.522C612.71,380.486 612.3,378.478 612.858,377.757C613.718,376.645 621.368,377.094 621.636,377.186C623.151,377.701 622.779,380.997 622.864,385.475C622.923,388.64 623.654,390.068 620.493,389.964C615.871,389.811 615.877,389.928 615.476,389.904C612.839,389.748 613.247,387.846 613.079,384.522Z" style="fill:rgb(195,196,198);"/>
                <path d="M589.091,380.527C589.104,378.522 589.059,378.53 589.105,378.362C589.438,377.14 590.575,376.976 596.504,377.073C598.23,377.101 598.636,376.906 599.137,378.568C599.183,378.719 599.118,383.107 599.119,383.497C599.135,387.884 600.525,390.127 596.481,389.945C591.836,389.736 591.852,389.904 591.453,389.855C590.144,389.696 589.868,388.608 589.825,388.441C589.678,387.861 589.141,381.161 589.091,380.527Z" style="fill:rgb(189,190,192);"/>
                <g id="Pin">
                    <path d="M239.505,393.138C242.046,393.136 244.948,393.024 245.5,393.5C246.142,394.053 246.905,402.069 245.834,403.715C244.571,405.657 243.319,405.185 243.409,408.507C243.502,411.984 245.375,423.148 243.596,423.675C242.058,424.13 241.61,422.66 241.555,422.479C240.461,418.88 242.501,409.282 238.314,404.692C237.373,403.66 236.041,403.67 235.875,395.49C235.84,393.793 235.751,393.308 237.445,393.151C238.129,393.088 238.821,393.202 239.505,393.138Z" style="fill:rgb(194,200,199);"/>
                    <path d="M247.104,380.435C246.534,385.979 247.206,389.655 244.519,389.898C243.549,389.985 238.979,389.929 238.497,389.924C235.359,389.886 235.917,388.592 236.239,385.469C236.354,384.35 236.576,384.077 236.955,381.557C237,381.254 237.424,378.436 237.907,377.841C238.787,376.758 242.844,377.093 244.483,377.052C244.699,377.047 246.708,376.998 247.114,377.699C247.502,378.369 247.117,380.329 247.104,380.435Z" style="fill:rgb(191,198,197);"/>
                </g>
                <g transform="matrix(0.244299,0,0,0.244299,208.820044,157.756733)">
                    <path d="M1368.712,1006.426C1368.37,1004.834 1366.901,1003.817 1366.685,993.637C1366.196,970.644 1365.304,964.94 1373.828,963.705C1374.266,963.641 1400.664,963.273 1403.043,964.129C1408.803,966.203 1405.991,973.836 1405.316,997.704C1405.039,1007.493 1402.069,1009.051 1395.672,1015.122C1395.198,1016.092 1394.18,1016.725 1393.706,1017.695C1391.243,1022.733 1392.379,1023.06 1391.571,1075.418C1391.552,1076.655 1391.286,1093.907 1382.257,1087.756C1378.422,1085.144 1380.917,1082.26 1380.327,1030.558C1380.173,1017.022 1375.678,1017.175 1370.447,1009.69C1369.741,1008.68 1369.418,1007.436 1368.712,1006.426Z" style="fill:rgb(207,207,207);"/>
                </g>
                <g transform="matrix(0.244299,0,0,0.244299,208.820044,157.756733)">
                    <path d="M2139.08,944.725C2137.484,936.696 2137.453,936.755 2137.356,936.054C2133.408,907.6 2132.209,907.558 2133.463,903.005C2135.179,896.773 2137.377,898.943 2143.73,897.802C2157.929,897.048 2168.08,896.584 2171.326,900.288C2173.567,902.845 2175.097,914.714 2175.263,915.999C2176.519,925.737 2181.202,943.873 2179.02,947.705C2177.268,950.781 2168.956,950.528 2168.051,950.5C2149.228,949.927 2149.244,950.223 2147.615,950.082C2140.372,949.454 2140.097,945.808 2139.08,944.725Z" style="fill:rgb(195,197,198);"/>
                </g>
                <g transform="matrix(0.244299,0,0,0.244299,208.820044,157.756733)">
                    <path d="M2236.105,945.561C2235.508,943.475 2232.999,939.975 2231.061,919.776C2230.452,913.434 2226.9,900.663 2233.283,898.604C2234.727,898.138 2236.347,898.431 2237.791,897.965C2260.192,897.642 2260.177,897.459 2262.672,898.106C2271.366,900.362 2271.599,917.428 2273.873,932.362C2275.783,944.907 2279.091,950.919 2266.361,950.638C2257.791,950.449 2241.549,951.101 2237.981,948.294C2237.113,947.611 2236.973,946.244 2236.105,945.561Z" style="fill:rgb(186,191,191);"/>
                </g>
                <path d="M684.236,388.631C683.666,384.585 683.848,384.58 683.295,380.529C683.194,379.79 682.666,377.55 684.407,377.134L686.522,377.055C689.079,376.985 689.069,376.913 690.522,377.025C690.679,377.037 691.986,377.138 692.41,377.58C692.808,377.994 693.054,379.403 693.082,379.569C694.597,388.249 694.446,388.54 694.087,389.229C693.669,390.032 691.697,389.958 691.48,389.949C685.453,389.721 685.319,390.019 684.627,389.348C684.431,389.158 684.431,388.821 684.236,388.631Z" style="fill:rgb(193,195,196);"/>
                <path d="M708.513,389.481C707.202,387.432 707.816,387.222 706.58,379.488C706.164,376.885 707.68,377.368 708.489,377.098C714.151,377.047 715.378,376.619 716.163,378.602C716.169,378.616 716.532,380.711 716.654,381.471C717.729,388.194 718.296,388.785 717.548,389.547C717.152,389.95 716.983,390.121 710.499,389.916C708.944,389.867 709.006,389.589 708.513,389.481Z" style="fill:rgb(191,192,194);"/>
                <path d="M783.504,390.014C779.659,389.864 778.566,390.278 777.928,386.442C777.835,385.885 776.994,380.822 776.933,379.454C776.809,376.676 779.309,377.133 779.519,377.091C782.281,376.935 784.626,376.777 785.507,377.492C786.841,378.574 788.646,387.997 788.048,389.272C787.682,390.054 785.688,389.98 785.474,389.972L783.504,390.014Z" style="fill:rgb(192,196,197);"/>
                <path d="M526.5,389.944C521.647,389.884 519.918,389.986 519.453,389.56C518.602,388.778 518.839,388.641 518.81,387.5C518.589,378.546 518.531,378.482 518.975,377.851C519.644,376.901 523.964,377.14 525.512,377.077C526.009,377.057 526.268,377.064 526.514,377.079C526.521,377.068 526.525,377.061 526.526,377.061C526.688,376.948 526.906,377.045 527.12,377.123C527.254,377.131 527.411,377.139 527.604,377.145C527.84,377.359 528.992,377.135 529.07,379.496C529.1,380.417 528.888,383.799 528.989,387.481C529.071,390.481 527.73,389.696 526.5,389.944Z" style="fill:rgb(196,197,200);"/>
                <path d="M547.507,389.9C544.49,389.852 542.704,390.42 542.51,387.5C541.914,378.501 542.16,378.248 542.706,377.684C543.339,377.03 545.231,377.139 549.507,377.071C550.499,377.189 552.579,376.607 552.598,379.498C552.614,382.002 552.382,381.993 552.591,386.491C552.661,388.009 553.062,389.944 550.537,390C550.294,390.006 550.312,389.993 547.507,389.9Z" style="fill:rgb(192,195,197);"/>
                <g id="Orange-Pin-Base" serif:id="Orange Pin Base" transform="matrix(0.244299,0,0,0.244299,115.253616,157.756733)">
                    <path d="M2340.187,1119.053C2320.968,1117.323 2307.662,1094.18 2325.563,1076.978C2327.185,1075.42 2322.633,1101.739 2342.851,1102.871C2360.558,1103.863 2361.815,1077.915 2361.815,1077.915C2376.762,1090.772 2366.789,1121.447 2340.187,1119.053Z" style="fill:rgb(218,118,69);"/>
                </g>
                <g id="Orange-Pin-Base1" serif:id="Orange Pin Base" transform="matrix(0.244299,0,0,0.244299,92.045233,157.756733)">
                    <path d="M2340.187,1119.053C2320.968,1117.323 2307.662,1094.18 2325.563,1076.978C2327.185,1075.42 2322.633,1101.739 2342.851,1102.871C2360.558,1103.863 2361.815,1077.915 2361.815,1077.915C2376.762,1090.772 2366.789,1121.447 2340.187,1119.053Z" style="fill:rgb(218,118,69);"/>
                </g>
                <g id="Orange-Pin-Base2" serif:id="Orange Pin Base" transform="matrix(0.244299,0,0,0.244299,68.671433,157.756733)">
                    <path d="M2340.187,1119.053C2320.968,1117.323 2307.662,1094.18 2325.563,1076.978C2327.185,1075.42 2322.633,1101.739 2342.851,1102.871C2360.558,1103.863 2361.815,1077.915 2361.815,1077.915C2376.762,1090.772 2366.789,1121.447 2340.187,1119.053Z" style="fill:rgb(218,118,69);"/>
                </g>
                <g id="Orange-Pin-Base3" serif:id="Orange Pin Base" transform="matrix(0.244299,0,0,0.244299,45.180206,157.756733)">
                    <path d="M2340.187,1119.053C2320.968,1117.323 2307.662,1094.18 2325.563,1076.978C2327.185,1075.42 2322.633,1101.739 2342.851,1102.871C2360.558,1103.863 2361.815,1077.915 2361.815,1077.915C2376.762,1090.772 2366.789,1121.447 2340.187,1119.053Z" style="fill:rgb(218,118,69);"/>
                </g>
                <g id="Orange-Pin-Base4" serif:id="Orange Pin Base" transform="matrix(0.244299,0,0,0.244299,21.727524,157.268135)">
                    <path d="M2340.187,1119.053C2320.968,1117.323 2307.662,1094.18 2325.563,1076.978C2327.185,1075.42 2322.633,1101.739 2342.851,1102.871C2360.558,1103.863 2361.815,1077.915 2361.815,1077.915C2376.762,1090.772 2366.789,1121.447 2340.187,1119.053Z" style="fill:rgb(218,118,69);"/>
                </g>
                <g id="Orange-Pin-Base5" serif:id="Orange Pin Base" transform="matrix(0.244299,0,0,0.244299,-1.960991,157.268135)">
                    <path d="M2340.187,1119.053C2320.968,1117.323 2307.662,1094.18 2325.563,1076.978C2327.185,1075.42 2322.633,1101.739 2342.851,1102.871C2360.558,1103.863 2361.815,1077.915 2361.815,1077.915C2376.762,1090.772 2366.789,1121.447 2340.187,1119.053Z" style="fill:rgb(218,118,69);"/>
                </g>
                <g id="Orange-Pin-Base6" serif:id="Orange Pin Base" transform="matrix(0.244299,0,0,0.244299,-25.274144,157.268135)">
                    <path d="M2340.187,1119.053C2320.968,1117.323 2307.662,1094.18 2325.563,1076.978C2327.185,1075.42 2322.633,1101.739 2342.851,1102.871C2360.558,1103.863 2361.815,1077.915 2361.815,1077.915C2376.762,1090.772 2366.789,1121.447 2340.187,1119.053Z" style="fill:rgb(218,118,69);"/>
                </g>
                <g id="Orange-Pin-Base7" serif:id="Orange Pin Base" transform="matrix(0.244299,0,0,0.244299,-48.482527,158.001031)">
                    <path d="M2340.187,1119.053C2320.968,1117.323 2307.662,1094.18 2325.563,1076.978C2327.185,1075.42 2322.633,1101.739 2342.851,1102.871C2360.558,1103.863 2361.815,1077.915 2361.815,1077.915C2376.762,1090.772 2366.789,1121.447 2340.187,1119.053Z" style="fill:rgb(218,118,69);"/>
                </g>
                <g id="Orange-Pin-Base8" serif:id="Orange Pin Base" transform="matrix(0.244299,0,0,0.244299,-71.859974,158.001031)">
                    <path d="M2340.187,1119.053C2320.968,1117.323 2307.662,1094.18 2325.563,1076.978C2327.185,1075.42 2322.633,1101.739 2342.851,1102.871C2360.558,1103.863 2361.815,1077.915 2361.815,1077.915C2376.762,1090.772 2366.789,1121.447 2340.187,1119.053Z" style="fill:rgb(218,118,69);"/>
                </g>
                <g id="Orange-Pin-Base9" serif:id="Orange Pin Base" transform="matrix(0.244299,0,0,0.244299,-95.232492,158.001031)">
                    <path d="M2340.187,1119.053C2320.968,1117.323 2307.662,1094.18 2325.563,1076.978C2327.185,1075.42 2322.633,1101.739 2342.851,1102.871C2360.558,1103.863 2361.815,1077.915 2361.815,1077.915C2376.762,1090.772 2366.789,1121.447 2340.187,1119.053Z" style="fill:rgb(218,118,69);"/>
                </g>
                <g id="Orange-Pin-Base10" serif:id="Orange Pin Base" transform="matrix(0.244299,0,0,0.244299,-118.78874,158.001031)">
                    <path d="M2340.187,1119.053C2320.968,1117.323 2307.662,1094.18 2325.563,1076.978C2327.185,1075.42 2322.633,1101.739 2342.851,1102.871C2360.558,1103.863 2361.815,1077.915 2361.815,1077.915C2376.762,1090.772 2366.789,1121.447 2340.187,1119.053Z" style="fill:rgb(218,118,69);"/>
                </g>
                <g id="Orange-Pin-Base11" serif:id="Orange Pin Base" transform="matrix(0.244299,0,0,0.244299,-142.46879,158.001031)">
                    <path d="M2340.187,1119.053C2320.968,1117.323 2307.662,1094.18 2325.563,1076.978C2327.185,1075.42 2322.633,1101.739 2342.851,1102.871C2360.558,1103.863 2361.815,1077.915 2361.815,1077.915C2376.762,1090.772 2366.789,1121.447 2340.187,1119.053Z" style="fill:rgb(218,118,69);"/>
                </g>
                <g id="Orange-Pin-Base12" serif:id="Orange Pin Base" transform="matrix(0.244299,0,0,0.244299,-165.783703,158.001031)">
                    <path d="M2340.187,1119.053C2320.968,1117.323 2307.662,1094.18 2325.563,1076.978C2327.185,1075.42 2322.633,1101.739 2342.851,1102.871C2360.558,1103.863 2361.815,1077.915 2361.815,1077.915C2376.762,1090.772 2366.789,1121.447 2340.187,1119.053Z" style="fill:rgb(218,118,69);"/>
                </g>
                <g id="Orange-Pin-Base13" serif:id="Orange Pin Base" transform="matrix(0.244299,0,0,0.244299,-188.874052,158.001031)">
                    <path d="M2340.187,1119.053C2320.968,1117.323 2307.662,1094.18 2325.563,1076.978C2327.185,1075.42 2322.633,1101.739 2342.851,1102.871C2360.558,1103.863 2361.815,1077.915 2361.815,1077.915C2376.762,1090.772 2366.789,1121.447 2340.187,1119.053Z" style="fill:rgb(218,118,69);"/>
                </g>
                <g id="Orange-Pin-Base14" serif:id="Orange Pin Base" transform="matrix(0.244299,0,0,0.244299,-212.189905,158.001031)">
                    <path d="M2340.187,1119.053C2320.968,1117.323 2307.662,1094.18 2325.563,1076.978C2327.185,1075.42 2322.633,1101.739 2342.851,1102.871C2360.558,1103.863 2361.815,1077.915 2361.815,1077.915C2376.762,1090.772 2366.789,1121.447 2340.187,1119.053Z" style="fill:rgb(218,118,69);"/>
                </g>
                <g id="Orange-Pin-Base15" serif:id="Orange Pin Base" transform="matrix(0.244299,0,0,0.244299,-235.977456,158.001031)">
                    <path d="M2340.187,1119.053C2320.968,1117.323 2307.662,1094.18 2325.563,1076.978C2327.185,1075.42 2322.633,1101.739 2342.851,1102.871C2360.558,1103.863 2361.815,1077.915 2361.815,1077.915C2376.762,1090.772 2366.789,1121.447 2340.187,1119.053Z" style="fill:rgb(218,118,69);"/>
                </g>
                <g id="Orange-Pin-Base16" serif:id="Orange Pin Base" transform="matrix(0.244299,0,0,0.244299,-259.059897,158.001031)">
                    <path d="M2340.187,1119.053C2320.968,1117.323 2307.662,1094.18 2325.563,1076.978C2327.185,1075.42 2322.633,1101.739 2342.851,1102.871C2360.558,1103.863 2361.815,1077.915 2361.815,1077.915C2376.762,1090.772 2366.789,1121.447 2340.187,1119.053Z" style="fill:rgb(218,118,69);"/>
                </g>
                <g id="Orange-Pin-Base17" serif:id="Orange Pin Base" transform="matrix(0.244299,0,0,0.244299,-282.512579,158.001031)">
                    <path d="M2340.187,1119.053C2320.968,1117.323 2307.662,1094.18 2325.563,1076.978C2327.185,1075.42 2322.633,1101.739 2342.851,1102.871C2360.558,1103.863 2361.815,1077.915 2361.815,1077.915C2376.762,1090.772 2366.789,1121.447 2340.187,1119.053Z" style="fill:rgb(218,118,69);"/>
                </g>
                <g id="Orange-Pin-Base18" serif:id="Orange Pin Base" transform="matrix(0.244299,0,0,0.244299,-306.20956,158.001031)">
                    <path d="M2340.187,1119.053C2320.968,1117.323 2307.662,1094.18 2325.563,1076.978C2327.185,1075.42 2322.633,1101.739 2342.851,1102.871C2360.558,1103.863 2361.815,1077.915 2361.815,1077.915C2376.762,1090.772 2366.789,1121.447 2340.187,1119.053Z" style="fill:rgb(218,118,69);"/>
                </g>
                <g id="Orange-Pin-Base19" serif:id="Orange Pin Base" transform="matrix(0.244299,0,0,0.244299,-329.514323,158.001031)">
                    <path d="M2340.187,1119.053C2320.968,1117.323 2307.662,1094.18 2325.563,1076.978C2327.185,1075.42 2322.633,1101.739 2342.851,1102.871C2360.558,1103.863 2361.815,1077.915 2361.815,1077.915C2376.762,1090.772 2366.789,1121.447 2340.187,1119.053Z" style="fill:rgb(218,118,69);"/>
                </g>
                <g id="Orange-Pin-Base20" serif:id="Orange Pin Base" transform="matrix(0.244299,0,0,0.244299,208.820044,157.756733)">
                    <path d="M2340.187,1119.053C2320.968,1117.323 2307.662,1094.18 2325.563,1076.978C2327.185,1075.42 2322.633,1101.739 2342.851,1102.871C2360.558,1103.863 2361.815,1077.915 2361.815,1077.915C2376.762,1090.772 2366.789,1121.447 2340.187,1119.053Z" style="fill:rgb(218,118,69);"/>
                </g>
                <g id="Orange-Pin-Base21" serif:id="Orange Pin Base" transform="matrix(0.244299,0,0,0.244299,185.367363,157.756733)">
                    <path d="M2340.187,1119.053C2320.968,1117.323 2307.662,1094.18 2325.563,1076.978C2327.185,1075.42 2322.633,1101.739 2342.851,1102.871C2360.558,1103.863 2361.815,1077.915 2361.815,1077.915C2376.762,1090.772 2366.789,1121.447 2340.187,1119.053Z" style="fill:rgb(218,118,69);"/>
                </g>
                <g id="Orange-Pin-Base22" serif:id="Orange Pin Base" transform="matrix(0.244299,0,0,0.244299,161.914681,157.756733)">
                    <path d="M2340.187,1119.053C2320.968,1117.323 2307.662,1094.18 2325.563,1076.978C2327.185,1075.42 2322.633,1101.739 2342.851,1102.871C2360.558,1103.863 2361.815,1077.915 2361.815,1077.915C2376.762,1090.772 2366.789,1121.447 2340.187,1119.053Z" style="fill:rgb(218,118,69);"/>
                </g>
                <g id="Orange-Pin-Base23" serif:id="Orange Pin Base" transform="matrix(0.244299,0,0,0.244299,138.706298,157.756733)">
                    <path d="M2340.187,1119.053C2320.968,1117.323 2307.662,1094.18 2325.563,1076.978C2327.185,1075.42 2322.633,1101.739 2342.851,1102.871C2360.558,1103.863 2361.815,1077.915 2361.815,1077.915C2376.762,1090.772 2366.789,1121.447 2340.187,1119.053Z" style="fill:rgb(218,118,69);"/>
                </g>
                <g transform="matrix(0.244299,0,0,0.244299,208.820044,157.756733)">
                    <path d="M1889.489,973.149C1889.288,975.136 1887.105,996.7 1886.881,997.984C1883.739,1015.973 1872.968,1012.158 1872.004,1030.396C1871.07,1048.074 1871.539,1051.333 1871.423,1055.114C1870.49,1085.357 1870.413,1088.511 1865.313,1088.57C1857.892,1088.655 1859.285,1074.435 1859.87,1050.853C1860.526,1024.43 1862.785,1023.072 1854.25,1013.007C1845.977,1003.25 1847.919,995.25 1847.96,985.429C1848.206,978.855 1847.407,966.088 1852.655,964.186C1857.009,962.608 1879.408,963.519 1881.732,963.614C1891.811,964.024 1889.202,970.518 1889.489,973.149Z" style="fill:rgb(193,196,198);"/>
                </g>
            </g>
            <g id="Top-Pins" serif:id="Top Pins">
                <path d="M317.977,188.624C317.785,189.337 317.944,191.212 315.493,191.312C309.651,191.55 309.436,191.345 309.062,190.99C308.452,190.412 308.523,190.339 308.574,189.498C308.921,183.696 309.841,183.272 312.499,183.199C317.714,183.057 318.468,183.795 318.494,185.5C318.503,186.105 318.445,186.095 317.977,188.624Z" style="fill:rgb(193,194,190);"/>
                <path d="M294.657,188.548C294.546,188.956 294.448,191.126 292.482,191.265C292.083,191.293 292.085,191.194 287.494,191.372C284.17,191.5 285.272,189.819 285.783,186.534C286.224,183.706 286.598,183.025 291.498,183.168C292.825,183.207 295.573,183.019 295.055,186.385C294.943,187.109 294.769,187.824 294.657,188.548Z" style="fill:rgb(186,187,183);"/>
                <path d="M341.063,189.366C340.694,190.018 341.138,191.187 338.488,191.287C333.072,191.491 332.456,191.363 332.204,190.685C331.906,189.883 332.023,184.512 333.58,183.646C334.063,183.376 341.054,182.309 341.687,184.423C341.964,185.348 341.688,186.532 341.063,189.366Z" style="fill:rgb(186,187,181);"/>
                <path d="M364.73,188.553C364.687,188.704 364.584,191.168 362.491,191.302C361.146,191.387 357.902,191.349 357.503,191.344C354.825,191.313 355.374,190.171 355.669,187.507C355.983,184.67 355.977,184.667 355.997,184.624C357.136,182.203 363.827,183.319 364.376,183.699C365.615,184.558 364.96,187.152 364.73,188.553Z" style="fill:rgb(193,193,189);"/>
                <path d="M411.264,189.434C411.145,189.703 411.18,190.024 411.061,190.293C410.68,191.152 409.625,191.229 409.478,191.24C409.144,191.264 404.897,191.283 404.499,191.285C401.562,191.299 402.053,189.69 402.395,186.496C402.724,183.429 403.546,182.999 408.503,183.205C412.805,183.383 411.928,185.187 411.264,189.434Z" style="fill:rgb(191,193,188);"/>
                <path d="M378.917,188.559C379.341,184.693 379.516,184.397 379.929,183.992C380.689,183.244 383.201,183.201 383.493,183.196C387.028,183.136 388.865,183.364 388.424,186.484C387.901,190.174 387.836,191.19 385.487,191.303C385.089,191.322 382.061,191.468 380.506,191.403C379.705,191.369 379.691,191.345 379.141,190.765C378.578,190.171 378.87,190.073 378.917,188.559Z" style="fill:rgb(191,192,190);"/>
                <path d="M589.057,188.521C589.042,188.19 588.911,185.261 589.266,184.375C590.018,182.492 596.388,183.141 597.334,183.79C598.813,184.803 598.078,190.273 598.068,190.3C597.659,191.396 595.998,191.349 591.506,191.314C590.551,191.306 589.268,191.35 589,189.444C588.957,189.139 589.099,188.827 589.057,188.521Z" style="fill:rgb(196,195,192);"/>
                <path d="M434.897,188.531C434.775,189.231 435.247,191.22 432.493,191.274C426.418,191.394 426.039,191.204 425.712,190.409C425.456,189.787 425.942,184.74 425.987,184.642C426.21,184.157 426.888,182.678 432.522,183.301C435.747,183.657 435.097,186.012 434.897,188.531Z" style="fill:rgb(193,193,189);"/>
                <path d="M501.514,183.207C502.579,183.326 504.966,182.756 505.041,186.459C505.047,186.789 505.11,189.949 504.582,190.56C503.806,191.458 503.68,191.283 502.499,191.299C497.302,191.366 496.208,191.372 495.867,190.363C495.673,189.788 495.804,185.039 495.987,184.647C496.835,182.83 499.909,183.229 501.514,183.207Z" style="fill:rgb(189,191,189);"/>
                <path d="M519.152,188.477C519.175,187.986 519.15,184.658 519.905,183.88C520.706,183.054 526.541,182.613 527.841,184.181C528.765,185.295 528.125,190.27 528.103,190.327C527.676,191.415 526.12,191.352 521.509,191.332C518.483,191.319 519.251,189.461 519.152,188.477Z" style="fill:rgb(190,190,186);"/>
                <path d="M262.088,189.53C262.141,188.974 262.225,184.512 263.584,183.656C264.685,182.963 270.374,183.054 271.269,183.82C272.013,184.458 271.587,186.299 271.538,186.51C270.597,190.576 270.351,191.254 268.495,191.383C268.098,191.41 265.762,191.573 263.514,191.403C263.396,191.394 262.51,191.327 262.25,190.649C262.115,190.297 262.224,189.882 262.088,189.53Z" style="fill:rgb(194,194,189);"/>
                <path d="M682.89,189.433C682.326,185.338 682.162,185.315 682.464,184.485C683.19,182.49 689.559,183.294 690.409,183.704C692.388,184.659 691.74,190.213 691.601,190.562C691.285,191.364 690.068,191.337 685.514,191.284C682.742,191.253 683.266,190.1 682.89,189.433Z" style="fill:rgb(189,189,186);"/>
                <path d="M706.083,188.553C705.76,185.714 705.742,185.733 705.734,185.487C705.729,185.323 705.694,184.205 706.579,183.624C707.529,183.001 713.16,183.012 714.237,183.884C714.59,184.169 715.173,184.64 715.161,189.473C715.156,191.718 712.949,191.308 712.503,191.3C708.83,191.232 708.831,191.261 708.513,191.23C705.832,190.965 706.192,188.999 706.083,188.553Z" style="fill:rgb(197,197,192);"/>
                <path d="M458.17,188.475C458.029,190.129 458.49,191.312 455.502,191.301C450.671,191.283 449.235,191.623 449.122,189.548C449.017,187.634 449.183,185.802 449.213,185.478C449.328,184.2 449.806,182.937 454.522,183.179C458.949,183.407 458.235,185.019 458.17,188.475Z" style="fill:rgb(187,189,184);"/>
                <path d="M617.513,183.239C619.941,183.455 621.643,183.19 621.631,186.511C621.626,187.829 621.955,190.493 620.756,190.97C619.497,191.472 619.465,191.173 615.506,191.204C615.405,191.205 612.701,191.672 612.53,189.496C612.511,189.258 612.642,189.266 612.471,186.504C612.238,182.756 613.765,183.212 617.513,183.239Z" style="fill:rgb(191,189,184);"/>
                <path d="M547.496,183.201C547.735,183.218 549.998,183.379 550.455,183.6C550.62,183.68 551.302,184.398 551.367,184.556C551.66,185.276 551.511,185.288 551.48,187.499C551.47,188.167 551.556,188.836 551.516,189.502C551.465,190.346 551.427,190.355 550.79,190.909C550.41,191.24 550.165,191.453 544.508,191.287C544.345,191.283 543.086,191.246 542.659,190.416C542.658,190.415 541.743,184.303 543.532,183.572C544.977,182.981 545.022,183.308 547.496,183.201Z" style="fill:rgb(191,194,189);"/>
                <path d="M729.487,188.503C729.049,185.195 728.154,183.209 732.504,183.187C738.105,183.158 738.133,184.369 738.308,186.506C738.583,189.866 738.717,189.882 738.508,190.504C738.158,191.547 735.933,191.299 732.507,191.229C729.389,191.164 729.817,190.051 729.487,188.503Z" style="fill:rgb(193,193,188);"/>
                <path d="M641.509,183.297C643.301,183.587 644.737,183.131 644.825,186.499C644.911,189.793 645.792,191.277 642.501,191.264C638.09,191.247 635.967,191.638 635.861,189.473C635.64,184.933 635.882,184.607 636.131,184.273C637.058,183.027 637.878,183.191 641.509,183.297Z" style="fill:rgb(194,195,190);"/>
                <path d="M753.077,188.554C752.984,188.068 752.352,185.373 752.576,184.519C753.184,182.195 759.939,183.439 760.425,183.682C762.089,184.515 762.066,189.889 761.752,190.69C761.386,191.621 758.178,191.316 756.503,191.276C752.969,191.192 753.483,190.065 753.077,188.554Z" style="fill:rgb(196,196,193);"/>
                <path d="M659.173,186.561C659.192,186.21 659.081,185.861 659.1,185.51C659.194,183.755 659.868,183.013 664.517,183.237C668.415,183.425 668.176,184.601 668.386,188.498C668.458,189.845 668.843,190.063 667.799,190.914C667.057,191.519 661.004,191.157 660.679,191.047C659.213,190.55 659.185,186.666 659.173,186.561Z" style="fill:rgb(196,196,190);"/>
                <path d="M565.902,188.487C565.834,184.943 565.144,183.311 569.488,183.197C573.911,183.082 574.781,183.584 574.802,186.515C574.804,186.756 574.821,189.133 574.786,189.536C574.682,190.739 574.572,190.798 573.439,191.227C573.07,191.367 573.07,191.293 568.503,191.264C567.396,191.257 566.262,191.32 565.911,189.474C565.849,189.151 565.964,188.81 565.902,188.487Z" style="fill:rgb(186,188,183);"/>
                <path d="M478.504,191.311C474.811,191.295 474.834,191.308 474.516,191.294C474.359,191.287 473.09,191.234 472.773,190.393C472.65,190.068 472.627,185.609 473.203,184.324C474.05,182.432 480.143,183.422 480.465,183.578C480.898,183.788 481.972,184.309 481.521,189.503C481.326,191.751 478.667,191.301 478.504,191.311Z" style="fill:rgb(193,192,187);"/>
            </g>
        </g>
    </g>
</svg>
